<svg width="224" height="224" viewBox="0 0 224 224" fill="none" xmlns="http://www.w3.org/2000/svg">
<g clip-path="url(#clip0)">
<path d="M159.509 43.1038H63.5736V112.014H159.509V43.1038Z" fill="#E3E1EE"/>
<path d="M161.12 43.1038H64.3284V112.014H161.12V43.1038Z" fill="#F7F7FE"/>
<path d="M159.509 112.014H63.5736V113.565H159.509V112.014Z" fill="#E3E1EE"/>
<path d="M168.464 112.014H75.1913V113.565H168.464V112.014Z" fill="#F7F7FE"/>
<path d="M158.87 109.09V46.0238L66.5768 46.0238L66.5768 109.09L158.87 109.09Z" fill="#C6E8E9"/>
<path d="M91.6947 109.087L104.898 46.026H121.754L108.545 109.087H91.6947Z" fill="white"/>
<path d="M113.313 109.087L126.517 46.026H134.34L121.132 109.087H113.313Z" fill="white"/>
<path d="M158.868 102.49V45.631H158.583V102.49H158.868Z" fill="#E3E1EE"/>
<path d="M61.8855 43.0018V67.5376H68.3777C68.3777 67.5376 80.0413 59.9285 82.6932 44.2819C82.9584 42.6907 81.7446 41.2372 80.1331 41.2372H63.6552C62.676 41.2372 61.8855 42.0277 61.8855 43.0018Z" fill="#E3E1EE"/>
<path d="M61.8855 106.868V69.5164H68.3777C68.3777 69.5164 72.1109 77.0541 75.8338 85.7291C80.1229 95.7352 72.7739 106.868 61.8855 106.868Z" fill="#E3E1EE"/>
<path d="M68.189 69.5164H62.1252C61.7682 69.5164 61.4724 69.2257 61.4724 68.8636V68.1853C61.4724 67.8283 61.7631 67.5325 62.1252 67.5325H68.189C68.546 67.5325 68.8418 67.8232 68.8418 68.1853V68.8636C68.8367 69.2257 68.546 69.5164 68.189 69.5164Z" fill="#F7F7FE"/>
<path d="M162.956 43.0018V67.5376H156.464C156.464 67.5376 144.8 59.9285 142.148 44.2819C141.883 42.6907 143.097 41.2372 144.714 41.2372H161.191C162.166 41.2372 162.956 42.0277 162.956 43.0018Z" fill="#E3E1EE"/>
<path d="M162.956 106.868V69.5164H156.464C156.464 69.5164 152.731 77.0541 149.008 85.7291C144.719 95.7352 152.068 106.868 162.956 106.868Z" fill="#E3E1EE"/>
<path d="M156.658 69.5164H162.722C163.079 69.5164 163.374 69.2257 163.374 68.8636V68.1853C163.374 67.8283 163.084 67.5325 162.722 67.5325H156.658C156.301 67.5325 156.005 67.8232 156.005 68.1853V68.8636C156.005 69.2257 156.296 69.5164 156.658 69.5164Z" fill="#F7F7FE"/>
<path d="M209.539 50.9526H177.685V98.535H209.539V50.9526Z" fill="#E3E1EE"/>
<path d="M214.149 50.9526H178.501V98.535H214.149V50.9526Z" fill="#F7F7FE"/>
<path d="M210.471 94.8556V54.6273L182.177 54.6273V94.8556H210.471Z" fill="white"/>
<path d="M193.612 78.5994V76.3095C193.612 73.3107 196.039 70.8831 199.038 70.8831V73.173C199.038 76.1718 196.611 78.5994 193.612 78.5994Z" fill="#FFBE17"/>
<path d="M193.612 89.4418V87.152C193.612 84.1532 196.039 81.7256 199.038 81.7256V84.0155C199.038 87.0143 196.611 89.4418 193.612 89.4418Z" fill="#FFBE17"/>
<path d="M193.612 67.7569V65.467C193.612 62.4682 196.039 60.0407 199.038 60.0407V62.3305C199.038 65.3293 196.611 67.7569 193.612 67.7569Z" fill="#FFBE17"/>
<path d="M116.545 201.868C168.401 201.868 210.438 199.316 210.438 196.168C210.438 193.019 168.401 190.467 116.545 190.467C64.6901 190.467 22.6531 193.019 22.6531 196.168C22.6531 199.316 64.6901 201.868 116.545 201.868Z" fill="#F7F7FE"/>
<path d="M113.364 187.918L109.907 186.551L112.156 178.187L115.608 179.554L113.364 187.918Z" fill="#FF8B6B"/>
<path d="M148.064 191.758H144.351L141.455 183.155H145.173L148.064 191.758Z" fill="#FF8B6B"/>
<path d="M143.857 191.33H148.386C148.539 191.33 148.671 191.437 148.702 191.585L149.436 194.89C149.513 195.231 149.242 195.558 148.89 195.553C147.432 195.527 146.371 195.44 144.535 195.44C143.408 195.44 140.001 195.558 138.441 195.558C136.916 195.558 136.676 194.018 137.314 193.875C140.175 193.248 142.332 192.386 143.25 191.559C143.418 191.406 143.632 191.33 143.857 191.33Z" fill="#026E78"/>
<path d="M110.09 186.164L113.864 187.658C114.007 187.714 114.088 187.862 114.063 188.01L113.527 191.35C113.471 191.697 113.109 191.901 112.788 191.768C111.436 191.208 109.498 190.351 107.79 189.672C105.791 188.882 104.021 188.306 101.675 187.377C100.257 186.816 100.431 185.225 101.073 185.332C104.011 185.812 106.245 186.623 109.147 186.108C109.468 186.046 109.794 186.046 110.09 186.164Z" fill="#026E78"/>
<path d="M135.87 79.9676C135.524 80.243 135.253 80.4521 134.947 80.6816C134.651 80.906 134.345 81.1151 134.039 81.3242C133.433 81.7424 132.81 82.1402 132.183 82.5278C130.923 83.2979 129.608 83.9966 128.22 84.6086C126.833 85.2155 125.38 85.7458 123.809 86.0875C122.243 86.4292 120.545 86.623 118.74 86.3425C118.281 86.2813 117.862 86.1742 117.368 86.0416C116.383 85.7356 115.833 85.2308 115.42 84.8177C114.624 83.966 114.252 83.201 113.89 82.4615C113.201 80.9927 112.788 79.5851 112.416 78.1826C111.702 75.3675 111.278 72.5982 111.044 69.7524L113.782 69.2322C114.629 71.7975 115.516 74.4036 116.506 76.8413C116.995 78.0551 117.546 79.2485 118.128 80.2277C118.408 80.7071 118.76 81.1355 118.939 81.2681C119.015 81.3344 119.035 81.2579 118.719 81.1457C118.893 81.1661 119.148 81.2222 119.377 81.2273C120.321 81.2936 121.407 81.1406 122.519 80.8295C123.63 80.5133 124.768 80.0645 125.89 79.5188C127.017 78.9833 128.123 78.3509 129.22 77.6879C129.766 77.3513 130.306 77.0045 130.842 76.6425L131.627 76.0968C131.882 75.9234 132.163 75.7143 132.362 75.5664L135.87 79.9676Z" fill="#FF8B6B"/>
<path d="M138.186 79.0496C137.283 82.487 126.15 86.3374 126.15 86.3374L122.723 78.6059C122.723 78.6059 127.246 76.2243 131.433 74.3322C134.243 73.0623 139.165 75.3114 138.186 79.0496Z" fill="#00A9BA"/>
<path d="M113.798 69.8391L113.889 66.5242L109.861 67.7176C109.861 67.7176 109.906 69.4617 111.411 70.5786L113.798 69.8391Z" fill="#FF8B6B"/>
<path d="M114.083 64.219L110.212 65.5552L109.861 67.7227L113.895 66.5293L114.083 64.219Z" fill="#FF8B6B"/>
<path d="M113.349 72.0784L117.169 71.2318C117.434 71.1706 117.577 70.9156 117.48 70.6555L114.155 61.7969C114.058 61.5368 113.762 61.3736 113.492 61.4348L109.672 62.2814C109.407 62.3426 109.264 62.5976 109.361 62.8577L112.681 71.7163C112.783 71.9764 113.084 72.1396 113.349 72.0784Z" fill="#026E78"/>
<path d="M113.818 71.976L117.638 71.1294C117.903 71.0682 118.046 70.8132 117.949 70.5531L114.624 61.6945C114.527 61.4344 114.231 61.2712 113.961 61.3324L110.141 62.179C109.876 62.2402 109.733 62.4952 109.83 62.7553L113.15 71.6139C113.252 71.8689 113.553 72.0321 113.818 71.976Z" fill="#00A9BA"/>
<path d="M109.947 63.0613L111.442 67.0444L111.579 67.4116L112.253 69.1965L112.395 69.579L112.931 71.007L117.72 69.9462L117.587 69.5943L117.444 69.222L116.154 65.7796L115.756 64.7035L114.741 62.0005L113.155 62.3524L112.752 62.4442L110.58 62.9236L110.243 62.995L109.947 63.0613Z" fill="#DCE9FF"/>
<path d="M113.063 64.6882L112.66 67.9726C112.63 68.2326 112.864 68.4519 113.125 68.3907L115.705 67.7992C115.98 67.738 116.093 67.4065 115.914 67.1872L113.737 64.4944C113.527 64.2292 113.104 64.3516 113.063 64.6882Z" fill="#FFBE17"/>
<path d="M114.451 67.228C114.502 67.4065 114.44 67.5748 114.303 67.6054C114.17 67.636 114.017 67.5187 113.966 67.3402C113.915 67.1617 113.976 66.9934 114.114 66.9628C114.247 66.9271 114.4 67.0495 114.451 67.228Z" fill="white"/>
<path d="M114.14 66.6517L113.92 66.7027C113.874 66.7129 113.828 66.6772 113.808 66.6211L113.38 65.4481C113.354 65.3818 113.38 65.3206 113.426 65.3104L113.793 65.2237C113.844 65.2135 113.895 65.2594 113.91 65.3257L114.191 66.5344C114.206 66.5905 114.185 66.6415 114.14 66.6517Z" fill="white"/>
<path d="M112.156 178.192L110.998 182.502L114.456 183.869L115.613 179.559L112.156 178.192Z" fill="#F29994"/>
<path d="M145.173 183.155H141.455L142.949 187.592H146.667L145.173 183.155Z" fill="#F29994"/>
<path d="M153.2 77.4992C151.619 81.4568 150.441 85.5368 149.533 89.3974C148.875 92.2228 148.365 94.9308 147.967 97.3941C147.029 103.167 146.677 107.609 146.346 109.088C143.479 108.573 132.673 106.64 126.782 105.58C126.374 84.2771 132.673 74.0058 132.673 74.0058C132.673 74.0058 134.901 73.8069 137.451 73.9344C137.788 73.9497 138.13 73.9752 138.476 74.0058C140.715 74.1996 144.316 74.9289 146.794 75.495C147.315 75.6123 147.84 75.75 148.35 75.8877C150.946 76.6068 153.2 77.4992 153.2 77.4992Z" fill="#00A9BA"/>
<path d="M147.646 82.2779C147.279 85.5775 147.886 88.4692 149.161 91.0855C149.278 90.5296 149.406 89.9686 149.533 89.4025C150.028 87.2809 150.609 85.088 151.303 82.8899L147.646 82.2779Z" fill="#026E78"/>
<path d="M147.656 65.9836C146.652 68.5641 145.249 73.3734 146.799 75.495C145.173 76.6629 142.923 77.4992 139.93 76.8924C137.635 76.4283 137.808 74.8014 138.481 74.0007C141.592 73.8222 141.914 71.5986 141.766 69.426L147.656 65.9836Z" fill="#FF8B6B"/>
<path d="M145.254 67.3861L141.771 69.4209C141.807 69.936 141.817 70.4511 141.761 70.9407C142.929 70.9815 144.719 70.0125 145.055 68.8395C145.224 68.2581 145.3 67.6819 145.254 67.3861Z" fill="#E87251"/>
<path d="M138.594 57.227C137.778 58.8845 137.41 64.0201 139.711 63.2245C142.011 62.4289 141.888 58.5173 141.888 58.5173C141.888 58.5173 140.506 53.3459 138.594 57.227Z" fill="#302F38"/>
<path d="M148.697 62.0158C147.825 65.6011 147.493 67.7379 145.331 69.273C142.077 71.5782 137.9 69.1149 137.686 65.341C137.492 61.9444 138.951 56.6558 142.755 55.85C146.504 55.0544 149.569 58.4306 148.697 62.0158Z" fill="#FF8B6B"/>
<path d="M146.871 59.0885C144.775 60.3583 145.127 64.4587 148.018 65.5348C150.91 66.6109 151.542 64.5046 151.068 64.2853C152.068 64.0762 156.005 62.3116 154.444 59.114C153.496 57.1709 150.599 57.4922 150.599 57.4922C150.599 57.4922 154.026 54.1313 148.635 51.4232C142.046 48.1185 141.052 54.1823 141.052 54.1823C141.052 54.1823 136.814 53.7131 137.171 56.5385C137.645 60.2818 141.623 57.2933 141.623 57.2933C141.623 57.2933 141.868 60.5878 146.871 59.0885Z" fill="#302F38"/>
<path d="M141.276 55.6001C141.195 55.6001 141.123 55.5491 141.098 55.4726C141.057 55.3604 140.154 52.6778 141.536 50.9285C142.434 49.7913 144.076 49.3374 146.422 49.572C146.529 49.5822 146.606 49.674 146.59 49.7811C146.58 49.8882 146.494 49.9647 146.381 49.9545C144.178 49.7301 142.648 50.1381 141.837 51.1631C140.583 52.7441 141.45 55.3196 141.46 55.3451C141.496 55.4471 141.44 55.5542 141.343 55.5899C141.317 55.595 141.297 55.6001 141.276 55.6001Z" fill="#302F38"/>
<path d="M149.615 66.2998C148.952 67.0393 148.008 67.4065 147.192 67.4371C145.963 67.483 145.632 66.3202 146.213 65.3053C146.733 64.3975 148.003 63.2755 149.12 63.709C150.222 64.1374 150.375 65.4532 149.615 66.2998Z" fill="#FF8B6B"/>
<path d="M110.019 181.191L115.868 183.507C115.868 183.507 122.687 160.827 125.013 149.485C125.721 146.032 127.17 141.279 128.888 136.21C131.061 129.82 133.662 122.94 135.768 117.559C137.987 111.893 139.639 107.89 139.639 107.89L126.777 105.585C126.777 105.585 115.603 135.368 114.002 146.593C112.334 158.267 110.019 181.191 110.019 181.191Z" fill="#026E78"/>
<path d="M128.888 136.205C131.061 129.814 133.662 122.935 135.768 117.554L134.738 114.515C131.112 117.988 128.965 129.718 128.888 136.205Z" fill="#024E55"/>
<path d="M133.723 106.824C133.723 106.824 131.694 138.602 132.091 149.485C132.53 161.398 141.205 186.73 141.205 186.73H148.008C148.008 186.73 143.602 163.943 142.715 152.351C141.705 139.147 146.346 109.088 146.346 109.088L133.723 106.824Z" fill="#026E78"/>
<path d="M140.389 186.878H148.401V184.486L139.44 184.328L140.389 186.878Z" fill="#00A9BA"/>
<path d="M109.228 181.038L116.2 183.797L117.092 181.543L109.345 178.34L109.228 181.038Z" fill="#00A9BA"/>
<path d="M143.02 62.0413C142.969 62.3371 142.771 62.5462 142.577 62.5105C142.383 62.4748 142.271 62.2096 142.322 61.9138C142.373 61.618 142.572 61.4089 142.765 61.4446C142.959 61.4803 143.071 61.7455 143.02 62.0413Z" fill="#302F38"/>
<path d="M139.685 61.4395C139.634 61.7353 139.435 61.9444 139.241 61.9087C139.048 61.873 138.935 61.6078 138.986 61.312C139.037 61.0162 139.236 60.8071 139.43 60.8428C139.624 60.8785 139.736 61.1488 139.685 61.4395Z" fill="#302F38"/>
<path d="M140.715 61.7812C140.715 61.7812 139.741 63.3622 138.854 64.0507C139.287 64.6321 140.215 64.5658 140.215 64.5658L140.715 61.7812Z" fill="#E87251"/>
<path d="M142.332 66.6619C142.291 66.6619 142.255 66.6313 142.245 66.5905C142.235 66.5446 142.266 66.4987 142.312 66.4885C142.806 66.3865 142.837 66.2896 142.837 66.2896C142.827 66.2845 142.822 66.2743 142.816 66.2641C142.816 66.2641 142.592 65.9428 141.445 65.8918C141.399 65.8918 141.358 65.851 141.363 65.8C141.363 65.7541 141.404 65.7184 141.45 65.7184C141.45 65.7184 141.45 65.7184 141.455 65.7184C142.612 65.7694 142.903 66.0856 142.959 66.1672C142.99 66.1978 143.026 66.259 143.01 66.3355C142.975 66.4783 142.765 66.5854 142.347 66.667C142.347 66.6619 142.342 66.6619 142.332 66.6619Z" fill="#302F38"/>
<path d="M144.244 61.1488C144.178 61.1488 144.117 61.1131 144.086 61.0519C143.734 60.3583 143.107 60.2767 143.082 60.2716C142.985 60.2614 142.918 60.1748 142.929 60.0779C142.939 59.981 143.02 59.9096 143.122 59.9249C143.158 59.93 143.964 60.0269 144.403 60.8938C144.448 60.9805 144.413 61.0876 144.326 61.1284C144.301 61.1437 144.275 61.1488 144.244 61.1488Z" fill="#302F38"/>
<path d="M138.461 60.037C138.425 60.037 138.39 60.0268 138.359 60.0013C138.283 59.9452 138.262 59.833 138.318 59.7565C138.895 58.9661 139.705 59.0018 139.741 59.0069C139.838 59.012 139.915 59.0936 139.909 59.1905C139.904 59.2874 139.838 59.3689 139.726 59.3588C139.7 59.3638 139.068 59.3384 138.609 59.9656C138.568 60.0115 138.517 60.037 138.461 60.037Z" fill="#302F38"/>
<path d="M142.628 191.978C142.347 191.978 142.082 191.932 141.914 191.789C141.781 191.677 141.72 191.519 141.73 191.325C141.74 191.177 141.817 191.111 141.878 191.075C142.291 190.866 143.49 191.6 143.622 191.687C143.653 191.707 143.668 191.743 143.663 191.774C143.658 191.809 143.632 191.835 143.597 191.845C143.342 191.906 142.969 191.978 142.628 191.978ZM142.072 191.208C142.026 191.208 141.985 191.213 141.96 191.228C141.934 191.238 141.909 191.264 141.904 191.33C141.893 191.468 141.934 191.575 142.021 191.651C142.225 191.825 142.709 191.845 143.342 191.718C142.924 191.478 142.357 191.208 142.072 191.208Z" fill="#00A9BA"/>
<path d="M143.576 191.845C143.561 191.845 143.546 191.84 143.535 191.835C143.153 191.626 142.408 190.81 142.485 190.397C142.5 190.32 142.556 190.193 142.765 190.167C142.903 190.147 143.031 190.188 143.143 190.279C143.576 190.631 143.663 191.702 143.668 191.748C143.668 191.779 143.658 191.809 143.627 191.83C143.612 191.84 143.592 191.845 143.576 191.845ZM142.827 190.341C142.811 190.341 142.801 190.341 142.786 190.341C142.674 190.356 142.663 190.407 142.658 190.427C142.612 190.672 143.087 191.289 143.469 191.575C143.428 191.264 143.306 190.636 143.031 190.412C142.964 190.366 142.898 190.341 142.827 190.341Z" fill="#00A9BA"/>
<path d="M109.565 186.505C109.56 186.505 109.555 186.505 109.549 186.505C108.948 186.398 107.907 186.138 107.657 185.654C107.581 185.506 107.586 185.353 107.662 185.195C107.708 185.098 107.785 185.042 107.882 185.032C107.897 185.032 107.907 185.026 107.923 185.026C108.453 185.026 109.509 186.22 109.626 186.357C109.651 186.383 109.657 186.424 109.636 186.459C109.626 186.49 109.595 186.505 109.565 186.505ZM107.933 185.205C107.923 185.205 107.917 185.205 107.907 185.205C107.866 185.21 107.841 185.23 107.821 185.271C107.77 185.378 107.764 185.48 107.815 185.572C107.953 185.842 108.509 186.102 109.32 186.276C108.871 185.796 108.223 185.205 107.933 185.205Z" fill="#00A9BA"/>
<path d="M109.565 186.505C109.539 186.505 109.519 186.495 109.504 186.48C109.162 186.128 108.631 185.052 108.846 184.69C108.897 184.603 109.009 184.516 109.238 184.583C109.412 184.634 109.544 184.741 109.636 184.904C109.932 185.44 109.657 186.409 109.646 186.449C109.636 186.48 109.616 186.5 109.585 186.51C109.58 186.505 109.575 186.505 109.565 186.505ZM109.096 184.731C109.029 184.731 109.009 184.761 108.999 184.777C108.866 184.996 109.198 185.807 109.519 186.23C109.58 185.939 109.677 185.338 109.483 184.986C109.417 184.863 109.32 184.787 109.192 184.751C109.152 184.736 109.121 184.731 109.096 184.731Z" fill="#00A9BA"/>
<path d="M153.307 79.2332C153.802 79.8095 154.225 80.3297 154.648 80.8907C155.072 81.4415 155.485 82.0025 155.893 82.5635C156.698 83.6957 157.469 84.8585 158.188 86.0569C158.917 87.2503 159.585 88.4998 160.207 89.785L160.661 90.7591L161.079 91.7638C161.222 92.0953 161.339 92.4472 161.467 92.794L161.651 93.3142L161.696 93.4417L161.768 93.661C161.819 93.8293 161.855 93.9772 161.885 94.1352C162.104 95.3388 161.972 96.2109 161.834 97.032C161.681 97.8429 161.467 98.5722 161.237 99.276C160.763 100.678 160.182 101.964 159.57 103.213C158.325 105.712 156.908 108.022 155.306 110.277L152.884 108.894C153.883 106.487 154.852 104.009 155.684 101.586C156.097 100.372 156.464 99.1587 156.729 97.9908C156.862 97.4094 156.964 96.8382 157.004 96.3282C157.05 95.8335 157.015 95.349 156.953 95.2419C156.948 95.2368 156.943 95.2215 156.938 95.2317C156.933 95.2215 156.948 95.2623 156.928 95.2113L156.882 95.1093L156.698 94.7013C156.576 94.4259 156.459 94.1556 156.311 93.8803L155.898 93.0643L155.454 92.2483C154.842 91.1671 154.184 90.091 153.486 89.0302C152.782 87.9745 152.052 86.9239 151.298 85.8886C150.563 84.8585 149.742 83.813 149.008 82.8644L153.307 79.2332Z" fill="#FF8B6B"/>
<path d="M152.195 77.1932C155.709 77.7236 160.376 85.654 160.376 85.654L153.776 92.8399C153.776 92.8399 150.15 88.1734 148.044 84.0986C145.749 79.6514 147.942 76.5507 152.195 77.1932Z" fill="#00A9BA"/>
<path d="M153.557 108.18L150.308 110.098L154.205 112.811C154.205 112.811 156.607 110.567 155.561 109.16L153.557 108.18Z" fill="#FF8B6B"/>
<path d="M149.156 112.98L152.481 115.071L154.205 112.806L150.308 110.098L149.156 112.98Z" fill="#FF8B6B"/>
<path d="M116.077 62.2198H115.567C115.567 61.2355 114.767 60.4348 113.782 60.4348V59.9248C115.047 59.9248 116.077 60.955 116.077 62.2198Z" fill="#FFBE17"/>
<path d="M117.097 62.2198H116.587C116.587 60.6745 115.328 59.4148 113.782 59.4148V58.9049C115.613 58.9049 117.097 60.3889 117.097 62.2198Z" fill="#FFBE17"/>
<path d="M118.117 62.2198H117.607C117.607 60.1084 115.894 58.3949 113.782 58.3949V57.8849C116.174 57.8849 118.117 59.8279 118.117 62.2198Z" fill="#FFBE17"/>
<path d="M113.415 74.1435C112.15 74.1435 111.12 73.1133 111.12 71.8485H111.63C111.63 72.8328 112.431 73.6335 113.415 73.6335V74.1435Z" fill="#FFBE17"/>
<path d="M113.415 75.1635C111.589 75.1635 110.1 73.6743 110.1 71.8485H110.61C110.61 73.3938 111.87 74.6535 113.415 74.6535V75.1635Z" fill="#FFBE17"/>
<path d="M113.415 76.1834C111.023 76.1834 109.08 74.2404 109.08 71.8485H109.59C109.59 73.9599 111.304 75.6735 113.415 75.6735V76.1834Z" fill="#FFBE17"/>
<g clip-path="url(#clip1)">
<path d="M73.6741 184.984C74.8368 172.962 75.8753 139.383 75.1952 133.354L73.5868 132.182C73.5868 132.182 74.0831 154.107 73.2192 172.525C72.3552 190.944 73.0951 182.249 72.7321 184.984H73.6741Z" fill="#E3E1EE"/>
<path d="M78.1639 161.073C81.4082 158.528 88.0303 156.717 94.7764 156.726C97.4279 156.731 86.716 159.686 82.263 162.953C78.8026 165.49 74.9011 169.754 73.573 172.121C74.4324 167.139 74.9195 163.619 78.1639 161.073Z" fill="#E3E1EE"/>
<path d="M71.7349 164.837C69.0419 162.186 62.8243 160.145 56.1012 159.915C53.4588 159.824 63.5044 163.151 67.2543 166.565C70.1678 169.217 73.1503 173.601 73.9728 176.009C74.1704 171.013 74.4278 167.489 71.7349 164.837Z" fill="#E3E1EE"/>
<path d="M78.3063 143.115C81.0498 140.959 86.6608 139.424 92.373 139.434C94.6155 139.438 85.5487 141.943 81.7759 144.705C78.844 146.851 75.5445 150.463 74.4186 152.471C75.1493 148.252 75.5629 145.27 78.3063 143.115Z" fill="#E3E1EE"/>
<path d="M72.8654 146.304C70.5861 144.057 65.3197 142.333 59.626 142.136C57.388 142.058 65.8987 144.875 69.0696 147.765C71.5373 150.008 74.0648 153.725 74.7587 155.761C74.9288 151.533 75.1448 148.551 72.8654 146.304Z" fill="#E3E1EE"/>
<path d="M74.1843 129.88C72.5621 128.051 68.633 126.493 64.2903 126.093C62.59 125.932 68.9363 128.473 71.2064 130.836C72.9711 132.669 74.7036 135.638 75.1263 137.237C75.4848 133.993 75.8065 131.704 74.1843 129.88Z" fill="#E3E1EE"/>
<path d="M75.2504 131.093C76.4223 129.517 79.2071 128.147 82.2631 127.761C83.4625 127.61 78.9589 129.843 77.323 131.879C76.05 133.464 74.7817 136.015 74.4554 137.384C74.2624 134.622 74.0786 132.669 75.2504 131.093Z" fill="#E3E1EE"/>
<path d="M73.4582 193.237C77.0105 193.237 79.9469 190.466 80.1491 186.918L80.742 181.275H66.1744L66.7672 186.918C66.974 190.466 69.9059 193.237 73.4582 193.237Z" fill="#C6E8E9"/>
<path d="M65.2324 183.605H81.6886L82.1574 179.336H64.7636L65.2324 183.605Z" fill="#00A9BA"/>
</g>
<path d="M21.0693 66.0602H20.449V78.2609H21.0693V66.0602Z" fill="#00A9BA"/>
<path d="M21.0693 81.6352H20.449V85.5491H21.0693V81.6352Z" fill="#00A9BA"/>
<path d="M83.6296 108.028H31.0928C26.4345 108.028 22.6261 104.219 22.6261 99.561V62.0719C22.6261 57.4137 26.4345 53.6052 31.0928 53.6052H83.6296C88.2879 53.6052 92.0963 57.4137 92.0963 62.0719V99.561C92.0963 104.219 88.2879 108.028 83.6296 108.028Z" fill="#00A9BA"/>
<path d="M21.7887 53.4129C21.6274 53.4129 21.4724 53.3509 21.3483 53.233L16.5598 48.4446C16.3179 48.2027 16.3179 47.8119 16.5598 47.57C16.8017 47.3281 17.1925 47.3281 17.4344 47.57L22.2229 52.3585C22.4648 52.6004 22.4648 52.9911 22.2229 53.233C22.105 53.3509 21.95 53.4129 21.7887 53.4129Z" fill="#00A9BA"/>
<path d="M24.8651 52.0917C24.5736 52.0917 24.3131 51.8871 24.2572 51.5893L23.3764 47.0117C23.3144 46.6768 23.5315 46.3481 23.8665 46.286C24.2014 46.224 24.5302 46.4411 24.5922 46.776L25.473 51.3536C25.535 51.6886 25.3179 52.0173 24.9829 52.0793C24.9457 52.0917 24.9023 52.0917 24.8651 52.0917Z" fill="#00A9BA"/>
<path d="M20.4736 56.4895C20.4364 56.4895 20.393 56.4833 20.3557 56.4771L15.7782 55.5963C15.4432 55.5343 15.2199 55.2055 15.2881 54.8706C15.3502 54.5356 15.6789 54.3123 16.0139 54.3806L20.5914 55.2613C20.9264 55.3234 21.1497 55.6521 21.0815 55.987C21.0194 56.2786 20.7651 56.4895 20.4736 56.4895Z" fill="#00A9BA"/>
<path d="M90.8433 78.3416L106.071 73.6709L90.8433 89.8166V78.3416Z" fill="#00A9BA"/>
<path d="M72.4398 90.5361H42.2699C42.2699 88.9234 42.9088 87.3789 44.0501 86.2438L44.6517 85.636C45.6318 84.6621 46.1776 83.3347 46.1776 81.9515V74.9363C46.1776 68.6281 51.4065 63.5419 57.7642 63.7652C58.7008 63.8024 59.6002 63.9513 60.4624 64.2056C60.1275 65.0926 59.9414 66.0602 59.9414 67.0651C59.9414 71.5558 63.5824 75.203 68.0793 75.203C68.2344 75.203 68.3833 75.1968 68.5321 75.1906C68.5321 75.1968 68.5321 75.1968 68.5321 75.203V81.9515C68.5321 83.3347 69.0842 84.6621 70.058 85.636L70.6596 86.2438C71.2303 86.8145 71.6769 87.4844 71.9808 88.2101C72.2786 88.942 72.4398 89.7297 72.4398 90.5361Z" fill="white"/>
<path d="M63.3219 92.1736C63.173 95.4238 60.4438 97.9917 57.1316 97.8739C54.0364 97.7684 51.5926 95.2315 51.3941 92.1736H63.3219Z" fill="white"/>
<path d="M72.1958 71.5503C74.6734 69.2749 74.8373 65.4218 72.5619 62.9442C70.2865 60.4667 66.4334 60.3028 63.9558 62.5782C61.4782 64.8536 61.3143 68.7066 63.5898 71.1842C65.8652 73.6618 69.7182 73.8257 72.1958 71.5503Z" fill="#FFBE17"/>
<path d="M69.2889 64.1312V70.2594H67.5956V66.2463C67.3227 66.4572 67.056 66.6247 66.8017 66.7487C66.5474 66.879 66.2248 67.003 65.8402 67.1209V65.7501C66.4109 65.564 66.8513 65.3469 67.1676 65.0864C67.484 64.8259 67.7321 64.5095 67.9057 64.1312H69.2889Z" fill="white"/>
</g>
<defs>
<clipPath id="clip0">
<rect width="204.089" height="180.681" fill="white" transform="translate(10.0599 21.4611)"/>
</clipPath>
<clipPath id="clip1">
<rect width="39.5253" height="67.1531" fill="white" transform="translate(55.6647 126.084)"/>
</clipPath>
</defs>
</svg>
