<svg width="224" height="224" viewBox="0 0 224 224" fill="none" xmlns="http://www.w3.org/2000/svg">
<g clip-path="url(#clip0)">
<path opacity="0.6" d="M28.3395 127.883C-13.8416 215.447 61.938 198.538 119.82 198.538C177.702 198.538 210.975 178.325 207.701 135.486C203.267 77.9683 193.912 22.8024 136.03 22.8024C78.1678 22.8024 50.4674 81.942 28.3395 127.883Z" fill="#F7F7FE"/>
<path d="M178.556 179.197C178.577 182.887 175.587 185.887 171.865 185.908L96.9398 186.131C93.2383 186.151 90.2282 183.15 90.2079 179.461L89.8011 40.2381C89.8011 36.5482 92.7908 33.5477 96.4924 33.5274L171.438 33.3044C175.14 33.3044 178.15 36.2847 178.15 39.9746L178.556 179.197Z" fill="#00A9BA"/>
<path d="M171.255 164.316L96.8788 164.519L96.5331 43.0157L170.889 42.7927L171.255 164.316Z" fill="#C6E8E9"/>
<path d="M140.667 174.575C140.667 178.041 137.86 180.859 134.403 180.88C130.925 180.88 128.098 178.082 128.098 174.615C128.077 171.148 130.904 168.33 134.362 168.33C137.819 168.31 140.667 171.108 140.667 174.575Z" fill="#00A9BA"/>
<path d="M74.3034 127.356C74.3034 127.356 80.6285 146.637 88.8045 152.557C96.9804 158.477 108.146 173.682 110.749 182.218C113.353 190.753 113.353 190.753 113.353 190.753H118.559C118.559 190.753 113.475 139.602 93.7466 127.356H74.3034Z" fill="#84190C"/>
<path d="M74.3035 127.356C74.3035 127.356 71.5782 156.085 68.6088 159.045C65.6395 162.005 47.1522 169.242 47.1522 169.242V173.784C47.1522 173.784 79.7338 185.3 93.7467 156.895L74.3035 127.356Z" fill="#4A1801"/>
<path d="M120.41 189.861C120.41 189.861 120.43 192.558 125.108 194.463C129.786 196.349 128.708 198.924 124.701 198.011C120.694 197.099 110.322 197.241 112.01 194.301C113.698 191.341 112.62 188.969 112.62 188.969L120.41 189.861Z" fill="#302F38"/>
<path d="M48.7588 175.608C48.7588 175.608 46.1352 176.298 45.4437 181.285C44.7522 186.273 41.9863 185.847 41.9049 181.752C41.8236 177.656 39.1389 167.661 42.4134 168.573C45.7081 169.486 47.7419 167.864 47.7419 167.864L48.7588 175.608Z" fill="#302F38"/>
<path d="M110.383 88.7136C110.383 88.7136 120.369 90.4572 128.606 83.4626C136.843 76.468 144.144 60.6745 144.144 60.6745L141.297 58.789C141.297 58.789 131.189 74.765 123.481 76.9546C113.8 79.6916 107.15 80.1174 107.15 80.1174L110.383 88.7136Z" fill="#FF8B6B"/>
<path d="M115.61 89.3421L113.719 78.5765C113.719 78.5765 97.8345 81.1108 100.133 86.5037C102.411 91.8966 111.4 89.8287 115.61 89.3421Z" fill="#00A9BA"/>
<path d="M89.1706 79.1848C89.1706 79.1848 75.3813 79.9147 74.7509 95.7893C74.1204 111.684 71.8629 128.958 71.8629 128.958C71.8629 128.958 90.0044 133.986 98.8311 131.634C98.8311 131.654 128.708 77.9683 89.1706 79.1848Z" fill="#026E78"/>
<path d="M92.4653 75.6165L89.2316 83.1382C89.2316 83.1382 90.7773 87.9026 96.899 84.2127L96.2482 75.7178L92.4653 75.6165Z" fill="#FF8B6B"/>
<path d="M94.0925 62.8032C92.9128 64.0805 90.5536 66.5337 90.635 68.8449C90.7163 71.1562 90.6146 75.1907 92.5671 76.914C94.5196 78.6576 96.6347 77.137 97.3465 76.3869C98.5058 75.1502 102.187 67.1419 99.299 63.7156C97.1228 61.161 94.9873 61.8301 94.0925 62.8032Z" fill="#FF8B6B"/>
<path d="M105.766 64.7293C105.766 64.7293 97.9566 66.7567 95.6584 65.155C93.3806 63.5534 92.7297 66.1688 92.628 66.4323C92.5264 66.7162 91.5705 70.4263 90.6756 70.1628C89.7807 69.8789 90.3298 64.9929 92.7704 62.5194C95.211 60.0662 105.746 60.4312 105.766 64.7293Z" fill="#171B23"/>
<path d="M137.067 40.6436C141.704 40.6436 141.521 54.5314 145.283 57.2481C149.046 59.9649 162.652 55.4032 163.669 59.904C164.706 64.4252 151.222 68.2772 150.368 72.8389C149.493 77.3803 157.486 88.7136 153.5 91.0856C149.514 93.4577 141.663 81.8812 137.046 82.4691C132.43 83.0571 124.111 94.1268 120.593 91.0856C117.095 88.0445 125.718 77.0154 123.725 72.8389C121.752 68.6422 108.614 64.1616 110.424 59.904C112.254 55.6465 125.413 60.4109 128.809 57.2481C132.226 54.0854 132.43 40.6436 137.067 40.6436Z" fill="#FFBE17"/>
<path opacity="0.6" d="M137.067 91.3898C141.704 91.3898 141.521 105.278 145.283 107.994C149.046 110.711 162.652 106.149 163.669 110.65C164.706 115.171 151.222 119.023 150.368 123.585C149.493 128.126 157.486 139.46 153.5 141.832C149.514 144.204 141.663 132.627 137.046 133.215C132.43 133.803 124.111 144.873 120.593 141.832C117.095 138.791 125.718 127.762 123.725 123.585C121.752 119.388 108.614 114.908 110.424 110.65C112.254 106.393 125.413 111.157 128.809 107.994C132.226 104.832 132.43 91.3898 137.067 91.3898Z" fill="white"/>
<path d="M88.6012 98.8506C88.6012 98.8506 106.031 120.179 112.783 111.765C119.535 103.331 123.684 86.4428 123.684 86.4428L120.532 85.125C120.532 85.125 114.797 101.365 106.844 100.29C103.387 99.8237 94.3975 94.0659 94.3975 94.0659L88.6012 98.8506Z" fill="#FF8B6B"/>
<path d="M88.1538 101.02L95.7602 93.1536C95.7602 93.1536 84.3506 81.8406 81.3202 86.8686C78.2898 91.8966 85.2861 97.918 88.1538 101.02Z" fill="#00A9BA"/>
<path d="M120.511 85.125C120.511 85.125 121.061 76.8937 123.664 78.5765C126.287 80.2795 123.664 86.4428 123.664 86.4428L120.511 85.125Z" fill="#F99C73"/>
<path d="M42.4337 138.669C46.8674 139.135 53.4976 138.629 53.762 136.094C54.0264 133.58 48.0674 130.904 43.6337 130.438C39.2 129.971 38.0814 131.492 37.817 134.006C37.5526 136.54 38 138.223 42.4337 138.669Z" fill="#FFBE17"/>
<path d="M39.444 112.333C43.8167 114.563 50.8333 116.631 52.1146 114.158C53.3756 111.684 48.3114 106.575 43.9387 104.345C39.5661 102.115 37.817 103.25 36.556 105.723C35.2747 108.217 35.0713 110.123 39.444 112.333Z" fill="#FFBE17"/>
</g>
<defs>
<clipPath id="clip0">
<rect width="191.808" height="177.054" fill="white" transform="translate(16.0958 22.8024)"/>
</clipPath>
</defs>
</svg>
