<svg width="225" height="224" viewBox="0 0 225 224" fill="none" xmlns="http://www.w3.org/2000/svg">
<g clip-path="url(#clip0)">
<path d="M11.1771 238.084H213.945C213.945 238.084 241.862 134.619 175.832 139.005C183.114 97.6346 155.439 79.1346 134.562 75.7276C113.685 72.3205 95.3288 83.4978 87.7592 99.3343C74.8378 88.8703 52.9918 92.1787 39.3967 108.531C25.8016 124.884 38.9123 149.94 38.9123 149.94C38.9123 149.94 12.691 156.139 26.7706 185.779C-0.427188 192.054 4.32655 230.572 11.1771 238.084Z" fill="#C6E8E9"/>
<path d="M63.6241 135.339C65.0546 133.998 66.5745 134.266 67.3791 134.534C68.0944 132.746 69.5249 130.778 72.7434 130.778C78.376 130.778 78.9124 136.323 78.9124 136.323C82.9357 135.071 83.6509 138.648 83.6509 138.826H62.1936C62.1042 136.501 63.6241 135.339 63.6241 135.339Z" fill="white"/>
<path d="M171.685 145.753C172.759 145.753 173.743 146.022 174.549 146.559C176.159 143.785 179.113 141.816 182.603 141.816C185.824 141.816 188.598 143.427 190.299 146.022C191.194 142.979 193.878 140.831 197.189 140.831C200.858 140.831 203.901 143.695 204.259 147.364C204.527 147.275 204.885 147.275 205.154 147.275C207.391 147.275 209.36 148.617 210.344 150.496H166.047C166.584 147.722 168.911 145.753 171.685 145.753Z" fill="white"/>
<path d="M143.406 38.2769C145.087 38.2769 146.449 36.9147 146.449 35.2343C146.449 33.5539 145.087 32.1917 143.406 32.1917C141.726 32.1917 140.364 33.5539 140.364 35.2343C140.364 36.9147 141.726 38.2769 143.406 38.2769Z" fill="#C6E8E9"/>
<path d="M76.1106 99.1295C76.1106 100.293 75.2158 101.188 74.0524 101.188C72.889 101.188 71.9941 100.293 71.9941 99.1295C71.9941 97.9661 72.889 97.0712 74.0524 97.0712C75.2158 97.0712 76.1106 98.0556 76.1106 99.1295Z" fill="#026E78"/>
<path d="M157.993 88.3908L156.74 87.7644C156.651 87.7644 156.561 87.6749 156.561 87.5854L155.935 86.3326C155.756 86.0641 155.308 86.0641 155.129 86.3326L154.503 87.5854C154.503 87.6749 154.414 87.7644 154.324 87.7644L153.071 88.3908C152.803 88.5698 152.803 89.0172 153.071 89.1962L154.324 89.8227C154.414 89.8227 154.503 89.9121 154.503 90.0016L155.129 91.2545C155.308 91.5229 155.756 91.5229 155.935 91.2545L156.561 90.0016C156.561 89.9121 156.651 89.8227 156.74 89.8227L157.993 89.1962C158.262 89.0172 158.262 88.5698 157.993 88.3908Z" fill="#C6E8E9"/>
<path d="M85.686 47.4048L84.1646 46.5994C84.0752 46.5099 83.9857 46.5099 83.8962 46.3309L83.0908 44.8096C82.9118 44.4516 82.2854 44.4516 82.1064 44.8096L81.301 46.3309C81.2115 46.4204 81.2115 46.5099 81.0325 46.5994L79.5112 47.4048C79.1532 47.5838 79.1532 48.2102 79.5112 48.3892L81.0325 49.1946C81.122 49.2841 81.2115 49.2841 81.301 49.463L82.1064 50.9844C82.2854 51.3423 82.9118 51.3423 83.0908 50.9844L83.8962 49.463C83.9857 49.3735 83.9857 49.2841 84.1646 49.1946L85.686 48.3892C86.0439 48.1207 86.0439 47.5838 85.686 47.4048Z" fill="#00A9BA"/>
<path d="M192.894 78.368L191.015 77.3836C190.925 77.2941 190.836 77.2046 190.746 77.1151L189.762 75.2359C189.493 74.7884 188.867 74.7884 188.598 75.2359L187.614 77.1151C187.524 77.2046 187.435 77.2941 187.345 77.3836L185.466 78.368C185.019 78.6364 185.019 79.2629 185.466 79.5313L187.345 80.5157C187.435 80.6052 187.524 80.6947 187.614 80.7842L188.598 82.6634C188.867 83.1109 189.493 83.1109 189.762 82.6634L190.746 80.7842C190.836 80.6947 190.925 80.6052 191.015 80.5157L192.894 79.5313C193.341 79.3524 193.341 78.6364 192.894 78.368Z" fill="#00A9BA"/>
<path d="M47.2056 71.2089L45.5053 70.314C45.4158 70.2245 45.3263 70.135 45.2368 70.0455L44.342 68.3452C44.0735 67.8978 43.4471 67.8978 43.2681 68.3452L42.3732 70.0455C42.2837 70.135 42.1942 70.2245 42.1047 70.314L40.4044 71.2089C39.957 71.4773 39.957 72.1038 40.4044 72.2827L42.1047 73.1776C42.1942 73.2671 42.2837 73.3566 42.3732 73.4461L43.2681 75.1464C43.5366 75.5938 44.163 75.5938 44.342 75.1464L45.2368 73.4461C45.3263 73.3566 45.4158 73.2671 45.5053 73.1776L47.2056 72.2827C47.6531 72.1038 47.6531 71.4773 47.2056 71.2089Z" fill="#026E78"/>
<path d="M161.483 60.5596L160.23 59.8437C160.141 59.8437 160.051 59.7542 160.051 59.6647L159.335 58.4119C159.157 58.0539 158.709 58.0539 158.53 58.4119L157.814 59.6647C157.814 59.7542 157.725 59.8437 157.635 59.8437L156.382 60.5596C156.024 60.7386 156.024 61.1861 156.382 61.365L157.635 62.081C157.725 62.081 157.814 62.1704 157.814 62.2599L158.53 63.5128C158.709 63.8707 159.157 63.8707 159.335 63.5128L160.051 62.2599C160.051 62.1704 160.141 62.081 160.23 62.081L161.483 61.365C161.841 61.1861 161.841 60.7386 161.483 60.5596Z" fill="#026E78"/>
<path d="M124.974 150.697H111.628V213.471H124.974V150.697Z" fill="white"/>
<path d="M124.527 156.094C124.527 152.512 121.509 149.557 117.851 149.557C114.192 149.557 111.175 152.512 111.175 156.094C111.175 156.094 110.351 171.498 117.851 179.737C125.441 171.498 124.527 156.094 124.527 156.094Z" fill="#FFBE17"/>
<path d="M95.2614 120.428C95.2614 120.428 70.8308 132.24 80.4957 167.141C80.4957 167.141 85.686 149.601 102.242 145.037L95.2614 120.428Z" fill="#026E78"/>
<path d="M140.99 120.428C140.99 120.428 165.421 132.24 155.756 167.141C155.756 167.141 150.566 149.601 134.01 145.037L140.99 120.428Z" fill="#026E78"/>
<path d="M126.046 152.376H109.49C108.864 152.376 108.237 151.928 108.148 151.302L107.253 147.275C107.074 146.38 107.7 145.574 108.595 145.574H127.03C127.925 145.574 128.641 146.38 128.372 147.275L127.477 151.302C127.298 151.928 126.762 152.376 126.046 152.376Z" fill="#026E78"/>
<path d="M93.8296 111.032C93.8296 111.032 96.3353 134.388 104.21 149.243C104.21 149.243 116.739 143.248 131.504 149.243C131.504 149.243 140.543 136.715 142.422 109.152C143.496 93.3127 142.243 75.1464 136.963 59.4858H100.273C95.3509 72.2828 91.8608 89.3752 93.8296 111.032Z" fill="#00A9BA"/>
<path d="M115.217 34.1604C111.548 38.3664 105.195 46.6888 100.273 59.4858H136.963C133.563 49.463 128.641 40.5141 121.571 33.8024C119.692 32.1916 116.828 32.2811 115.217 34.1604Z" fill="#026E78"/>
<path d="M117.455 109.868C117.455 109.868 106.179 135.462 117.455 165.888C117.455 165.978 129.983 140.563 117.455 109.868Z" fill="#026E78"/>
<path d="M118.528 100.293C126.337 100.293 132.668 93.9625 132.668 86.1536C132.668 78.3447 126.337 72.0143 118.528 72.0143C110.72 72.0143 104.389 78.3447 104.389 86.1536C104.389 93.9625 110.72 100.293 118.528 100.293Z" fill="#026E78"/>
<path d="M128.145 88.4072C129.388 83.1146 126.106 77.8163 120.813 76.5729C115.52 75.3296 110.222 78.6121 108.979 83.9046C107.735 89.1971 111.018 94.4955 116.31 95.7388C121.603 96.9822 126.901 93.6997 128.145 88.4072Z" fill="#C6E8E9"/>
<path d="M98.7843 227.651C108.318 227.651 116.046 220.022 116.046 210.612C116.046 201.202 108.318 193.573 98.7843 193.573C89.2507 193.573 81.5222 201.202 81.5222 210.612C81.5222 220.022 89.2507 227.651 98.7843 227.651Z" fill="white"/>
<path d="M151.538 225.865C160.085 225.865 167.014 219.036 167.014 210.612C167.014 202.188 160.085 195.359 151.538 195.359C142.99 195.359 136.061 202.188 136.061 210.612C136.061 219.036 142.99 225.865 151.538 225.865Z" fill="white"/>
<path d="M126.017 209.347C132.674 209.347 138.07 204.017 138.07 197.442C138.07 190.867 132.674 185.537 126.017 185.537C119.36 185.537 113.963 190.867 113.963 197.442C113.963 204.017 119.36 209.347 126.017 209.347Z" fill="white"/>
<path d="M103.993 198.558C108.636 198.558 112.401 194.827 112.401 190.225C112.401 185.622 108.636 181.891 103.993 181.891C99.3492 181.891 95.5849 185.622 95.5849 190.225C95.5849 194.827 99.3492 198.558 103.993 198.558Z" fill="white"/>
<path d="M125.496 189.034C128.66 189.034 131.225 186.502 131.225 183.379C131.225 180.256 128.66 177.725 125.496 177.725C122.332 177.725 119.767 180.256 119.767 183.379C119.767 186.502 122.332 189.034 125.496 189.034Z" fill="white"/>
<path d="M115.228 207.338C120.858 207.338 125.422 202.841 125.422 197.293C125.422 191.746 120.858 187.248 115.228 187.248C109.598 187.248 105.034 191.746 105.034 197.293C105.034 202.841 109.598 207.338 115.228 207.338Z" fill="white"/>
<path d="M33.9026 266.788C51.1206 266.788 65.0785 253.03 65.0785 236.058C65.0785 219.087 51.1206 205.329 33.9026 205.329C16.6846 205.329 2.72662 219.087 2.72662 236.058C2.72662 253.03 16.6846 266.788 33.9026 266.788Z" fill="white"/>
<path d="M71.3286 241.49C84.2318 241.49 94.692 231.163 94.692 218.424C94.692 205.686 84.2318 195.359 71.3286 195.359C58.4254 195.359 47.9653 205.686 47.9653 218.424C47.9653 231.163 58.4254 241.49 71.3286 241.49Z" fill="white"/>
<path d="M185.616 266.714C203.861 266.714 218.652 252.123 218.652 234.124C218.652 216.125 203.861 201.534 185.616 201.534C167.37 201.534 152.58 216.125 152.58 234.124C152.58 252.123 167.37 266.714 185.616 266.714Z" fill="white"/>
<path d="M103.695 249.526C116.598 249.526 127.058 239.199 127.058 226.46C127.058 213.721 116.598 203.394 103.695 203.394C90.7919 203.394 80.3317 213.721 80.3317 226.46C80.3317 239.199 90.7919 249.526 103.695 249.526Z" fill="white"/>
<path d="M131.746 249.526C146.252 249.526 158.011 237.933 158.011 223.633C158.011 209.332 146.252 197.74 131.746 197.74C117.24 197.74 105.481 209.332 105.481 223.633C105.481 237.933 117.24 249.526 131.746 249.526Z" fill="white"/>
</g>
<defs>
<clipPath id="clip0">
<rect width="224" height="224" fill="white" transform="translate(0.5)"/>
</clipPath>
</defs>
</svg>
