<svg width="155" height="38" viewBox="0 0 155 38" fill="none" xmlns="http://www.w3.org/2000/svg">
<path d="M33.1353 29.4937V8.98592H39.2046C41.0254 8.98592 42.6226 9.40118 44.0281 10.1998C45.4336 10.9984 46.5197 12.1483 47.2863 13.6497C48.053 15.1191 48.4363 16.844 48.4363 18.7607V19.7828C48.4363 21.7314 48.053 23.4244 47.2863 24.8938C46.5197 26.3632 45.4017 27.5132 43.9642 28.3118C42.5267 29.1104 40.8976 29.4937 39.0449 29.4937H33.1353ZM36.6811 11.8608V26.6507H39.013C40.8657 26.6507 42.3031 26.0757 43.3253 24.8938C44.3156 23.7119 44.8267 22.0508 44.8586 19.8467V18.6968C44.8586 16.4607 44.3795 14.7677 43.4212 13.5858C42.4629 12.4039 41.0573 11.8289 39.2046 11.8289H36.6811V11.8608Z" fill="#076E78"/>
<path d="M58.3389 29.7812C56.1667 29.7812 54.4098 29.1104 53.0682 27.7368C51.7265 26.3632 51.0557 24.5424 51.0557 22.2744V21.8592C51.0557 20.3259 51.3432 18.9842 51.9501 17.7704C52.5251 16.5885 53.3557 15.6302 54.4098 14.9594C55.4639 14.2885 56.6458 13.9691 57.9555 13.9691C60.0319 13.9691 61.6291 14.6399 62.779 15.9496C63.897 17.2593 64.472 19.144 64.472 21.5717V22.9452H54.5056C54.6015 24.191 55.0167 25.2132 55.7514 25.916C56.4861 26.6507 57.4125 27.0021 58.5305 27.0021C60.0958 27.0021 61.3735 26.3632 62.3638 25.0855L64.2165 26.8424C63.6096 27.7687 62.779 28.4715 61.7888 28.9506C60.7666 29.5256 59.6166 29.7812 58.3389 29.7812ZM57.9236 16.7162C56.9972 16.7162 56.2306 17.0357 55.6556 17.7065C55.0806 18.3773 54.6973 19.2717 54.5376 20.4536H61.0541V20.1981C60.9902 19.0481 60.6707 18.1857 60.1277 17.6107C59.6166 17.0037 58.8819 16.7162 57.9236 16.7162Z" fill="#076E78"/>
<path d="M75.6523 25.341C75.6523 24.7341 75.3967 24.2549 74.8856 23.9355C74.3745 23.6161 73.544 23.3286 72.394 23.105C71.2441 22.8494 70.2538 22.5619 69.4872 22.1786C67.7942 21.3481 66.9317 20.1662 66.9317 18.6009C66.9317 17.2912 67.4747 16.1732 68.5928 15.3107C69.7108 14.4163 71.1163 14.0011 72.8093 14.0011C74.6301 14.0011 76.0995 14.4483 77.2175 15.3427C78.3355 16.2371 78.9105 17.419 78.9105 18.8565H75.4926C75.4926 18.1857 75.237 17.6426 74.7579 17.2274C74.2787 16.7801 73.6079 16.5885 72.8093 16.5885C72.0427 16.5885 71.4357 16.7482 70.9566 17.0996C70.4774 17.451 70.2538 17.8982 70.2538 18.5051C70.2538 19.0162 70.4774 19.4315 70.9246 19.719C71.3719 20.0064 72.2663 20.2939 73.6079 20.6134C74.9495 20.9009 76.0037 21.2522 76.7703 21.6675C77.537 22.0828 78.1119 22.5619 78.4633 23.1369C78.8467 23.7119 79.0064 24.4147 79.0064 25.2132C79.0064 26.5868 78.4314 27.7048 77.3134 28.5354C76.1634 29.3979 74.694 29.8131 72.8413 29.8131C71.5955 29.8131 70.4774 29.5895 69.5191 29.1423C68.5289 28.6951 67.7942 28.0562 67.2511 27.2896C66.7081 26.491 66.4206 25.6605 66.4206 24.7341H69.7427C69.7747 25.5327 70.0941 26.1716 70.6691 26.5868C71.2441 27.034 71.9788 27.2576 72.9051 27.2576C73.7996 27.2576 74.5023 27.0979 74.9495 26.7465C75.4287 26.3632 75.6523 25.916 75.6523 25.341Z" fill="#076E78"/>
<path d="M86.2895 10.5511V14.2566H88.9727V16.7801H86.2895V25.2771C86.2895 25.8521 86.4172 26.2674 86.6409 26.5229C86.8645 26.7785 87.2797 26.9062 87.8866 26.9062C88.27 26.9062 88.6852 26.8743 89.0686 26.7785V29.4298C88.3019 29.6534 87.5353 29.7492 86.8006 29.7492C84.1812 29.7492 82.8715 28.3118 82.8715 25.4049V16.7801H80.348V14.2566H82.8396V10.5511H86.2895Z" fill="#076E78"/>
<path d="M91.5921 10.2956C91.5921 9.78449 91.7518 9.33729 92.1032 8.98591C92.4227 8.63453 92.9018 8.47481 93.5407 8.47481C94.1476 8.47481 94.6268 8.63453 94.9781 8.98591C95.3295 9.33729 95.4892 9.78449 95.4892 10.2956C95.4892 10.8067 95.3295 11.2539 94.9781 11.5733C94.6268 11.9247 94.1476 12.0844 93.5407 12.0844C92.9337 12.0844 92.4546 11.9247 92.1032 11.5733C91.7518 11.2539 91.5921 10.8067 91.5921 10.2956ZM95.2337 29.4937H91.8157V14.2566H95.2337V29.4937Z" fill="#076E78"/>
<path d="M115.55 29.4937H111.972L102.836 14.9274V29.4618H99.2585V8.98592H102.836L112.004 23.5841V8.98592H115.55V29.4937Z" fill="#02A9BA"/>
<path d="M118.776 21.7314C118.776 20.2301 119.064 18.8884 119.67 17.7065C120.277 16.5246 121.108 15.5982 122.162 14.9594C123.248 14.3205 124.462 14.0011 125.868 14.0011C127.912 14.0011 129.605 14.6719 130.883 15.9816C132.16 17.2912 132.863 19.0481 132.959 21.2522V22.0508C132.959 23.5522 132.672 24.8938 132.097 26.0757C131.522 27.2576 130.691 28.184 129.605 28.8229C128.519 29.4617 127.273 29.7812 125.868 29.7812C123.727 29.7812 122.002 29.0784 120.693 27.641C119.415 26.2035 118.744 24.2869 118.744 21.9231V21.7314H118.776ZM122.226 22.0189C122.226 23.5841 122.545 24.8299 123.184 25.6924C123.823 26.5549 124.718 27.034 125.899 27.034C127.049 27.034 127.944 26.5868 128.583 25.6924C129.222 24.798 129.541 23.4564 129.541 21.7314C129.541 20.1981 129.222 18.9843 128.551 18.0579C127.88 17.1635 126.986 16.7163 125.868 16.7163C124.749 16.7163 123.855 17.1635 123.216 18.0579C122.545 18.9204 122.226 20.262 122.226 22.0189Z" fill="#02A9BA"/>
<path d="M149.25 24.766L151.678 14.2566H155L150.847 29.4937H148.036L144.778 19.0162L141.552 29.4937H138.741L134.556 14.2566H137.878L140.338 24.6702L143.468 14.2566H146.056L149.25 24.766Z" fill="#02A9BA"/>
<path d="M13.426 37.7351C14.2375 37.7351 14.8954 37.0772 14.8954 36.2657C14.8954 35.4542 14.2375 34.7963 13.426 34.7963C12.6145 34.7963 11.9566 35.4542 11.9566 36.2657C11.9566 37.0772 12.6145 37.7351 13.426 37.7351Z" fill="#096F78"/>
<path d="M13.458 1.9583C7.13318 1.9583 1.99026 7.10121 1.99026 13.426C1.99026 18.569 5.34434 22.8813 10.0081 24.3507C10.4553 25.8202 11.6053 29.2381 13.5538 33.295C15.5343 29.1742 16.6843 25.6924 17.0996 24.2869C21.6356 22.7536 24.9258 18.4731 24.9258 13.426C24.9258 7.06927 19.7828 1.9583 13.458 1.9583ZM13.49 19.0801C10.6789 19.0801 8.37898 16.7801 8.37898 13.9691C8.37898 11.158 10.6789 8.85811 13.49 8.85811C16.301 8.85811 18.6009 11.158 18.6009 13.9691C18.6009 16.7801 16.3329 19.0801 13.49 19.0801Z" fill="url(#paint0_linear)"/>
<path d="M24.8619 14.3524C24.3188 14.3524 23.9035 13.9372 23.9035 13.3941C23.9035 7.61232 19.1759 2.88467 13.3941 2.88467C7.61232 2.88467 2.91661 7.61232 2.91661 13.3941C2.91661 13.9372 2.50135 14.3524 1.95831 14.3524C1.41527 14.3524 1 13.9372 1 13.3941C1 6.55819 6.55818 1 13.4261 1C20.262 1 25.8521 6.55818 25.8521 13.4261C25.8202 13.9372 25.4049 14.3524 24.8619 14.3524Z" fill="url(#paint1_linear)"/>
<path fill-rule="evenodd" clip-rule="evenodd" d="M13.4261 1.25C6.69584 1.25 1.25 6.69667 1.25 13.3941C1.25 13.7991 1.55334 14.1024 1.95831 14.1024C2.36328 14.1024 2.66661 13.7991 2.66661 13.3941C2.66661 7.47524 7.47326 2.63467 13.3941 2.63467C19.314 2.63467 24.1535 7.47425 24.1535 13.3941C24.1535 13.7991 24.4569 14.1024 24.8619 14.1024C25.2667 14.1024 25.5747 13.7974 25.6021 13.4178C25.5976 6.6922 20.1216 1.25 13.4261 1.25ZM0.75 13.3941C0.75 6.41969 6.42053 0.75 13.4261 0.75C20.3996 0.75 26.1021 6.41969 26.1021 13.4261V13.4339L26.1016 13.4416C26.0617 14.0809 25.5405 14.6024 24.8619 14.6024C24.1807 14.6024 23.6535 14.0752 23.6535 13.3941C23.6535 7.75039 19.0378 3.13467 13.3941 3.13467C7.75138 3.13467 3.16661 7.7494 3.16661 13.3941C3.16661 14.0752 2.63942 14.6024 1.95831 14.6024C1.2772 14.6024 0.75 14.0752 0.75 13.3941Z" fill="white"/>
<defs>
<linearGradient id="paint0_linear" x1="13.4618" y1="1.94533" x2="13.4618" y2="33.2877" gradientUnits="userSpaceOnUse">
<stop offset="0.1263" stop-color="#03A8B9"/>
<stop offset="0.1264" stop-color="#03A8B9"/>
<stop offset="0.1289" stop-color="#03A8B9"/>
<stop offset="1" stop-color="#096F78"/>
</linearGradient>
<linearGradient id="paint1_linear" x1="13.411" y1="0.987127" x2="13.411" y2="14.3677" gradientUnits="userSpaceOnUse">
<stop offset="0.1001" stop-color="#03A8B9"/>
<stop offset="0.1815" stop-color="#05A1B1"/>
<stop offset="1" stop-color="#096F78"/>
</linearGradient>
</defs>
</svg>
