<svg width="24" height="24" viewBox="0 0 24 24" fill="none" xmlns="http://www.w3.org/2000/svg">
<path d="M10.3077 8.84869H13.0123V11.252H10.3077V8.84869Z" fill="#000"/>
<path d="M15.9717 4.08747V2H14.7992V7.67621C14.7992 8.12172 14.5507 8.5092 14.1848 8.70762V12.4246H9.13527V8.84875H8.54902C7.90145 8.84875 7.37653 9.37368 7.37653 10.0212V13.0108C7.37653 13.6584 7.90145 14.1833 8.54902 14.1833H16.7331C17.3807 14.1833 17.9056 13.6584 17.9056 13.0108V7.5005H18.6481C19.2956 7.5005 19.8206 6.97557 19.8206 6.328V4.68662L15.9717 4.08747Z" fill="#000"/>
<path d="M6.03237 7.75464C5.39625 7.75464 4.8637 8.19667 4.72422 8.79027C4.40541 8.91467 4.17947 9.22452 4.17947 9.58737C4.17947 10.0599 4.56253 10.4429 5.03505 10.4429H6.20403V10.0212C6.20403 9.29815 6.53311 8.6507 7.04916 8.2202C6.8027 7.9352 6.43872 7.75464 6.03237 7.75464Z" fill="#000"/>
<path d="M13.9921 15.3558H10.7077L8.69568 16.1247V17.1536H12.3439L8.69568 18.5479V19.5768H12.3439L8.69568 20.9711V22H16.0041V20.8275H12.3558L16.0041 19.4332V18.4043H12.3558L16.0041 17.01V15.9811H12.3558L13.9921 15.3558Z" fill="#000"/>
</svg>
