<svg width="24" height="24" viewBox="0 0 24 24" fill="none" xmlns="http://www.w3.org/2000/svg">
<path d="M10.8806 3.71539C11.3221 2.76154 12.6779 2.76154 13.1194 3.71539L14.8495 7.45349C15.0292 7.84176 15.3973 8.10918 15.8221 8.16011L19.9118 8.65039C20.9554 8.7755 21.3744 10.065 20.6037 10.7796L17.5832 13.5802C17.2694 13.8711 17.1288 14.3038 17.2117 14.7235L18.0092 18.7646C18.2127 19.7958 17.1158 20.5927 16.198 20.0805L12.6011 18.0733C12.2275 17.8648 11.7725 17.8648 11.3989 18.0733L7.80204 20.0805C6.88422 20.5927 5.78731 19.7958 5.99081 18.7646L6.78833 14.7235C6.87117 14.3038 6.73058 13.8711 6.41684 13.5802L3.39633 10.7796C2.62558 10.065 3.04456 8.7755 4.08816 8.65039L8.17792 8.16011C8.60273 8.10918 8.9708 7.84176 9.1505 7.45349L10.8806 3.71539Z" fill="#000"/>
</svg>
