<svg width="41" height="40" viewBox="0 0 41 40" fill="none" xmlns="http://www.w3.org/2000/svg">
<path fill-rule="evenodd" clip-rule="evenodd" d="M25.3644 14.4459C25.3646 14.4375 25.3646 14.4289 25.3646 14.4204V13.5796C25.3646 13.5711 25.3646 13.5626 25.3644 13.5541C25.3515 12.6939 24.6862 12 23.8673 12H23.829H18.9065H13.9457C13.1192 12 12.4484 12.7076 12.4484 13.5796V14.4204C12.4484 15.2929 13.1192 16 13.9457 16H18.9065H23.829H23.8673C24.6862 16 25.3515 15.3066 25.3644 14.4459Z" fill="#FFBE17"/>
<path d="M23.3776 9.57957V10.4204C23.3776 11.2929 22.7072 12 21.8802 12H15.9329C15.1064 12 14.4355 11.2929 14.4355 10.4204V9.57957C14.4355 8.70765 15.1064 8 15.9329 8H21.8802C22.7072 8 23.3776 8.70765 23.3776 9.57957Z" fill="#00A9BA"/>
<path d="M21.3904 8H22.3839V17H21.3904V8Z" fill="#026E78"/>
<path d="M15.4291 8H16.4226V17H15.4291V8Z" fill="#026E78"/>
<path fill-rule="evenodd" clip-rule="evenodd" d="M30.0029 22.8657L30.0029 22.8657L18.9455 23.9494V23.9487L18.9387 23.9494L9.46777 22.8657L10.8134 17.4057C11.0174 16.5789 11.741 16 12.5701 16H25.2314C25.2345 16 25.2375 16 25.2406 16C25.8961 16.0023 26.4995 16.369 26.8175 16.9594L30.0029 22.8657Z" fill="#00A9BA"/>
<path fill-rule="evenodd" clip-rule="evenodd" d="M27.4197 23.1383L19.1442 23.9493V23.9488L19.1391 23.9493L12.051 23.1383L13.0581 19.0521C13.2108 18.4333 13.7523 18 14.3728 18H19.1442H23.8486H23.8509C24.3432 18 24.7969 18.2748 25.0357 18.718L27.4197 23.1383Z" fill="#C6E8E9"/>
<rect x="11.4548" y="18" width="10.9291" height="5" fill="#00A9BA"/>
<path fill-rule="evenodd" clip-rule="evenodd" d="M36.4999 25.2045C36.4999 25.2045 36.4999 25.2045 36.4999 25.2045V28.3442C36.4999 28.5179 36.4299 28.6752 36.3167 28.7891C36.2036 28.903 36.0472 28.9735 35.8747 28.9735H19.3457V28.9735H8.36286C7.3268 28.9735 6.48706 28.1283 6.48706 27.0855V24.5651C6.48706 23.5223 7.3268 22.6771 8.36286 22.6771H33.9882C34.5506 22.6772 35.0697 22.8631 35.4883 23.1771C36.1024 23.6379 36.4999 24.3745 36.4999 25.2045Z" fill="#026E78"/>
<path d="M13.4807 32C15.1269 32 16.4613 30.6569 16.4613 29C16.4613 27.3431 15.1269 26 13.4807 26C11.8345 26 10.5 27.3431 10.5 29C10.5 30.6569 11.8345 32 13.4807 32Z" fill="#00A9BA"/>
<path d="M30.1723 32C31.8185 32 33.153 30.6569 33.153 29C33.153 27.3431 31.8185 26 30.1723 26C28.5261 26 27.1917 27.3431 27.1917 29C27.1917 30.6569 28.5261 32 30.1723 32Z" fill="#00A9BA"/>
<path d="M30.001 20.2083C30.1358 19.9306 30.5291 19.9306 30.6639 20.2083L31.0836 21.0733C31.1196 21.1477 31.1793 21.2077 31.2531 21.244L32.1126 21.6664C32.3886 21.8021 32.3886 22.1979 32.1126 22.3336L31.2531 22.756C31.1793 22.7923 31.1196 22.8523 31.0836 22.9267L30.6639 23.7917C30.5291 24.0694 30.1358 24.0694 30.001 23.7917L29.5814 22.9267C29.5453 22.8523 29.4856 22.7923 29.4118 22.756L28.5523 22.3336C28.2763 22.1979 28.2763 21.8021 28.5523 21.6664L29.4118 21.244C29.4856 21.2077 29.5453 21.1477 29.5814 21.0733L30.001 20.2083Z" fill="#FFBE17"/>
<path d="M6.98354 24.3125C7.18569 23.8958 7.77566 23.8958 7.97781 24.3125L8.60732 25.61C8.66141 25.7215 8.75094 25.8116 8.8617 25.866L10.1509 26.4996C10.5648 26.7031 10.5648 27.2969 10.1509 27.5004L8.8617 28.134C8.75094 28.1884 8.66141 28.2785 8.60732 28.39L7.97781 29.6875C7.77566 30.1042 7.18569 30.1042 6.98354 29.6875L6.35403 28.39C6.29994 28.2785 6.21041 28.1884 6.09965 28.134L4.81048 27.5004C4.39651 27.2969 4.39651 26.7031 4.81048 26.4996L6.09965 25.866C6.21041 25.8116 6.29994 25.7215 6.35403 25.61L6.98354 24.3125Z" fill="#FFBE17"/>
</svg>
