<svg width="24" height="24" viewBox="0 0 24 24" fill="none" xmlns="http://www.w3.org/2000/svg">
<path d="M18.6667 11C18.5167 11 18.3667 11.025 18.225 11.0417L16.5083 9.33334H17.8333C18.2917 9.33334 18.6667 8.95834 18.6667 8.50001V8.18334C18.6667 7.56667 18.0167 7.15834 17.4583 7.44167L15.5583 8.39167L13.4167 6.25001C13.2667 6.09167 13.05 6.00001 12.8333 6.00001H10.3333C9.875 6.00001 9.5 6.37501 9.5 6.83334C9.5 7.29167 9.875 7.66667 10.3333 7.66667H12.1417C12.3667 7.66667 12.575 7.75834 12.7333 7.90834L14.1583 9.33334H11.3667C11.2333 9.33334 11.1083 9.36667 10.9917 9.42501L8.375 10.7333C8.05833 10.8917 7.66667 10.8333 7.41667 10.575L6.41667 9.57501C6.25833 9.42501 6.04167 9.33334 5.825 9.33334H2.83333C2.375 9.33334 2 9.70834 2 10.1667C2 10.625 2.375 11 2.83333 11H5.33333C3.23333 11 1.59167 12.9333 2.09167 15.1167C2.36667 16.325 3.34167 17.3 4.55 17.575C6.73333 18.075 8.66667 16.4333 8.66667 14.3333L9.84167 15.5083C10.1583 15.825 10.5833 16 11.025 16H11.8667C12.4667 16 13.0167 15.6833 13.3167 15.1583L15.7417 10.9167L16.5833 11.7583C15.6417 12.5167 15.1167 13.7667 15.4333 15.1333C15.7167 16.3333 16.6917 17.3083 17.8917 17.5833C20.0667 18.075 22 16.425 22 14.3333C22 12.4917 20.5083 11 18.6667 11ZM5.33333 16C4.41667 16 3.66667 15.25 3.66667 14.3333C3.66667 13.4167 4.41667 12.6667 5.33333 12.6667C6.25 12.6667 7 13.4167 7 14.3333C7 15.25 6.25 16 5.33333 16ZM18.6667 16C17.75 16 17 15.25 17 14.3333C17 13.4167 17.75 12.6667 18.6667 12.6667C19.5833 12.6667 20.3333 13.4167 20.3333 14.3333C20.3333 15.25 19.5833 16 18.6667 16Z" fill="#000"/>
</svg>
