<svg width="24" height="24" viewBox="0 0 24 24" fill="none" xmlns="http://www.w3.org/2000/svg">
<path d="M21.4528 12.0075C21.4528 11.4219 20.9797 10.9489 20.3941 10.9489L13.0587 10.9414V3.59838C13.0587 3.01275 12.5856 2.53973 12 2.53973C11.4144 2.53973 10.9414 3.01275 10.9414 3.59838V10.9414L3.59838 10.9414C3.01275 10.9414 2.53973 11.4144 2.53973 12C2.53973 12.5856 3.01275 13.0587 3.59838 13.0587L10.9414 13.0587V20.4016C10.9414 20.9873 11.4144 21.4603 12 21.4603C12.5856 21.4603 13.0587 20.9873 13.0587 20.4016V13.0587L20.4016 13.0587C20.9722 13.0587 21.4528 12.5781 21.4528 12.0075Z" fill="#000"/>
</svg>
