<svg width="24" height="24" viewBox="0 0 24 24" fill="none" xmlns="http://www.w3.org/2000/svg">
<g clip-path="url(#clip0)">
<path d="M12 3C7.03724 3 3 7.03724 3 12C3 16.9628 7.03724 21 12 21C16.9628 21 21 16.9628 21 12C21 7.03724 16.9628 3 12 3ZM12 19.8261C9.72581 19.8261 7.68158 18.8452 6.25041 17.2912C6.97684 15.8629 8.20225 14.7724 9.66464 14.2025C8.59455 13.4601 7.89129 12.2244 7.89129 10.8261C7.89129 8.56045 9.73432 6.71739 12 6.71739C14.2657 6.71739 16.1087 8.56042 16.1087 10.8261C16.1087 12.2241 15.4058 13.4594 14.3361 14.2019C15.7994 14.7713 17.0257 15.8607 17.7529 17.2876C16.3215 18.8437 14.2759 19.8261 12 19.8261Z" fill="#000"/>
</g>
<defs>
<clipPath id="clip0">
<rect width="24" height="24" fill="white"/>
</clipPath>
</defs>
</svg>
