<svg width="24" height="24" viewBox="0 0 24 24" fill="none" xmlns="http://www.w3.org/2000/svg">
<path fill-rule="evenodd" clip-rule="evenodd" d="M13.6614 4.06178C13.0062 2.64607 10.9938 2.64607 10.3386 4.06178L8.74172 7.51201C8.67671 7.65248 8.54355 7.74923 8.38986 7.76765L4.61504 8.22018C3.06615 8.40586 2.44428 10.3197 3.58823 11.3804L6.37613 13.9653C6.48964 14.0705 6.5405 14.227 6.51053 14.3789L5.77443 18.1088C5.47239 19.6393 7.10042 20.8221 8.46265 20.0619L11.7825 18.2092C11.9177 18.1338 12.0823 18.1338 12.2175 18.2092L15.5373 20.0619C16.8996 20.8221 18.5276 19.6393 18.2256 18.1088L17.4895 14.3789C17.4595 14.227 17.5104 14.0705 17.6239 13.9653L20.4118 11.3804C21.5557 10.3197 20.9339 8.40586 19.385 8.22018L15.6101 7.76765C15.4565 7.74923 15.3233 7.65248 15.2583 7.51201L13.6614 4.06178ZM12 4.38449C12.1626 4.38449 12.3251 4.47076 12.405 4.6433L14.0018 8.09353C14.2686 8.66981 14.8149 9.06671 15.4453 9.1423L19.2202 9.59482C19.5977 9.64009 19.7493 10.1066 19.4705 10.3651L16.6826 12.95C16.2169 13.3818 16.0082 14.024 16.1312 14.647L16.8673 18.3769C16.9409 18.7499 16.5441 19.0382 16.212 18.8529L12.8921 17.0003C12.6149 16.8455 12.3074 16.7682 12 16.7682V4.38449Z" fill="#000"/>
</svg>
