<svg width="24" height="24" viewBox="0 0 24 24" fill="none" xmlns="http://www.w3.org/2000/svg">
<path fill-rule="evenodd" clip-rule="evenodd" d="M18.0988 4.53169H17.2494C17.3372 3.17228 16.2575 2 14.8731 2H9.07588C7.6373 2 6.52715 3.26571 6.71475 4.69202L7.33418 9.40161H16.6148L17.1011 5.70401H18.0988C18.4225 5.70401 18.6849 5.44157 18.6849 5.11787C18.685 4.79412 18.4225 4.53169 18.0988 4.53169ZM6.41964 13.9552H17.5294C17.5516 13.9552 17.5737 13.9544 17.5958 13.9537L17.6096 13.9532C16.8393 16.1306 14.7628 17.6906 12.3215 17.6906H11.6275C9.18625 17.6906 7.10968 16.1306 6.33942 13.9532L6.34939 13.9535L6.34947 13.9535C6.37277 13.9544 6.3961 13.9552 6.41964 13.9552ZM11.6275 18.8629H12.3216C13.1661 18.8629 13.9847 18.7053 14.7438 18.414L15.1905 21.325C15.2449 21.68 14.9703 22 14.6111 22H9.33797C8.97882 22 8.70411 21.68 8.75858 21.325L9.20522 18.414C9.96439 18.7052 10.783 18.8629 11.6275 18.8629ZM6.41964 12.7829H17.5293C18.1393 12.7829 18.6338 12.2884 18.6338 11.6784C18.6338 11.0684 18.1393 10.5739 17.5293 10.5739H6.41964C5.80963 10.5739 5.31512 11.0684 5.31512 11.6784C5.31512 12.2884 5.80963 12.7829 6.41964 12.7829Z" fill="#000"/>
</svg>
