<svg width="24" height="24" viewBox="0 0 24 24" fill="none" xmlns="http://www.w3.org/2000/svg">
<g clip-path="url(#clip0)">
<path fill-rule="evenodd" clip-rule="evenodd" d="M3.75782 5H20.2422C20.5128 5 20.7661 5.06623 20.9953 5.17539L13.2428 12.8545C12.5573 13.537 11.4427 13.537 10.7572 12.8545L3.00473 5.17539C3.23391 5.06623 3.48723 5 3.75782 5ZM15.7582 12L21.8238 6.00026C21.9335 6.22843 22 6.48062 22 6.75V17.25C22 17.5193 21.9335 17.7716 21.8238 17.9997L15.7582 12ZM2.17617 6.00026C2.06652 6.22843 2 6.48062 2 6.75V17.25C2 17.5194 2.06652 17.7716 2.17617 17.9997L8.24176 12L2.17617 6.00026ZM14.0714 13.6794L14.9297 12.8249L20.9953 18.8246C20.7661 18.9338 20.5128 19 20.2422 19H3.75782C3.48723 19 3.23391 18.9338 3.00473 18.8246L9.07031 12.8249L9.92859 13.6794C11.0707 14.8164 12.9292 14.8164 14.0714 13.6794Z" fill="#000"/>
</g>
<defs>
<clipPath id="clip0">
<rect width="24" height="24" fill="white"/>
</clipPath>
</defs>
</svg>
