<svg width="40" height="40" viewBox="0 0 40 40" fill="none" xmlns="http://www.w3.org/2000/svg">
<rect x="17.9889" y="11" width="4.45862" height="4.35596" rx="2.17798" fill="#FFBE17"/>
<path fill-rule="evenodd" clip-rule="evenodd" d="M33.1681 26.8448C33.1943 26.5257 33.2077 26.2031 33.2077 25.8777C33.2077 19.0811 27.3921 13.5714 20.2182 13.5714C13.0443 13.5714 7.22876 19.0811 7.22876 25.8777C7.22876 26.2031 7.2421 26.5257 7.26828 26.8448H33.1681Z" fill="#00A9BA"/>
<mask id="path-3-outside-1" maskUnits="userSpaceOnUse" x="7.84851" y="14.7368" width="13" height="13" fill="black">
<rect fill="white" x="7.84851" y="14.7368" width="13" height="13"/>
<path fill-rule="evenodd" clip-rule="evenodd" d="M19.8342 15.7368C20.0527 15.7368 20.2696 15.743 20.4849 15.755C14.7205 16.078 10.1498 20.6654 10.1498 26.2769C10.1498 26.5557 10.1611 26.8319 10.1832 27.1053H8.88194C8.85979 26.8319 8.84851 26.5557 8.84851 26.2769C8.84851 20.4558 13.767 15.7368 19.8342 15.7368Z"/>
</mask>
<path fill-rule="evenodd" clip-rule="evenodd" d="M19.8342 15.7368C20.0527 15.7368 20.2696 15.743 20.4849 15.755C14.7205 16.078 10.1498 20.6654 10.1498 26.2769C10.1498 26.5557 10.1611 26.8319 10.1832 27.1053H8.88194C8.85979 26.8319 8.84851 26.5557 8.84851 26.2769C8.84851 20.4558 13.767 15.7368 19.8342 15.7368Z" fill="#C6E8E9"/>
<path d="M20.4849 15.755L20.4903 15.8518C20.5417 15.849 20.5818 15.8065 20.5818 15.755C20.5818 15.7036 20.5417 15.6611 20.4903 15.6582L20.4849 15.755ZM10.1832 27.1053V27.2022H10.2884L10.2799 27.0974L10.1832 27.1053ZM8.88194 27.1053L8.78528 27.1131L8.79251 27.2022H8.88194V27.1053ZM20.4903 15.6582C20.2732 15.646 20.0545 15.6399 19.8342 15.6399V15.8338C20.0509 15.8338 20.266 15.8399 20.4794 15.8518L20.4903 15.6582ZM20.4794 15.6582C14.6675 15.9839 10.0528 20.6102 10.0528 26.2769H10.2468C10.2468 20.7205 14.7735 16.1722 20.4903 15.8518L20.4794 15.6582ZM10.0528 26.2769C10.0528 26.5583 10.0642 26.8372 10.0866 27.1131L10.2799 27.0974C10.2579 26.8267 10.2468 26.5531 10.2468 26.2769H10.0528ZM8.88194 27.2022H10.1832V27.0083H8.88194V27.2022ZM8.75154 26.2769C8.75154 26.5583 8.76293 26.8372 8.78528 27.1131L8.97859 27.0974C8.95665 26.8267 8.94548 26.5531 8.94548 26.2769H8.75154ZM19.8342 15.6399C13.7173 15.6399 8.75154 20.3985 8.75154 26.2769H8.94548C8.94548 20.5131 13.8167 15.8338 19.8342 15.8338V15.6399Z" fill="#C6E8E9" mask="url(#path-3-outside-1)"/>
<rect x="4" y="26" width="32" height="3" rx="1.5" fill="#026E78"/>
<path d="M28.3229 14.0888C28.4873 13.7599 28.9671 13.7599 29.1316 14.0888L29.6435 15.1132C29.6875 15.2012 29.7604 15.2723 29.8504 15.3153L30.8989 15.8155C31.2356 15.9761 31.2356 16.4449 30.8989 16.6056L29.8504 17.1058C29.7604 17.1487 29.6875 17.2199 29.6435 17.3079L29.1316 18.3323C28.9671 18.6612 28.4873 18.6612 28.3229 18.3323L27.8109 17.3079C27.7669 17.2199 27.6941 17.1487 27.604 17.1058L26.5555 16.6056C26.2188 16.4449 26.2188 15.9761 26.5555 15.8155L27.604 15.3153C27.6941 15.2723 27.7669 15.2012 27.8109 15.1132L28.3229 14.0888Z" fill="#FFBE17"/>
<path d="M32.3634 17.7796C32.4621 17.5823 32.75 17.5823 32.8486 17.7796L33.1558 18.3942C33.1822 18.447 33.2259 18.4897 33.28 18.5155L33.9091 18.8156C34.1111 18.912 34.1111 19.1933 33.9091 19.2897L33.28 19.5898C33.2259 19.6156 33.1822 19.6582 33.1558 19.7111L32.8486 20.3257C32.75 20.523 32.4621 20.523 32.3634 20.3257L32.0562 19.7111C32.0298 19.6582 31.9862 19.6156 31.9321 19.5898L31.303 19.2897C31.101 19.1933 31.101 18.912 31.303 18.8156L31.9321 18.5155C31.9862 18.4897 32.0298 18.447 32.0562 18.3942L32.3634 17.7796Z" fill="#FFBE17"/>
<path d="M6.01991 23.5625C6.18432 23.2336 6.66416 23.2336 6.82857 23.5625L7.34057 24.5869C7.38456 24.6749 7.45737 24.746 7.54746 24.789L8.59596 25.2892C8.93266 25.4498 8.93266 25.9186 8.59596 26.0792L7.54746 26.5794C7.45737 26.6224 7.38456 26.6936 7.34057 26.7816L6.82857 27.8059C6.66416 28.1349 6.18432 28.1349 6.01991 27.8059L5.50792 26.7816C5.46393 26.6936 5.39111 26.6224 5.30103 26.5794L4.25252 26.0792C3.91583 25.9186 3.91583 25.4498 4.25252 25.2892L5.30103 24.789C5.39111 24.746 5.46393 24.6749 5.50792 24.5869L6.01991 23.5625Z" fill="#FFBE17"/>
</svg>
