<svg width="24" height="24" viewBox="0 0 24 24" fill="none" xmlns="http://www.w3.org/2000/svg">
<path d="M20.5419 13.772C20.3406 13.6506 20.0833 13.6772 19.911 13.8372C19.0037 14.6795 17.9366 15.2823 16.7395 15.6287C12.5599 16.838 8.17533 14.4217 6.96581 10.2419C6.56535 8.8579 6.54999 7.39474 6.92142 6.0106C6.98234 5.7836 6.88564 5.54366 6.68433 5.42236C6.48306 5.30102 6.22576 5.32763 6.05346 5.48753C1.60001 9.56698 2.49781 17.0052 7.81796 19.8836C12.8577 22.7053 19.3194 19.9281 20.779 14.3602C20.8399 14.1332 20.7432 13.8933 20.5419 13.772Z" fill="#000"/>
<path d="M15.0389 10.944H17.4408V12.0337H15.0389V10.944Z" fill="#000"/>
<path d="M12.637 10.944H13.9844V12.0314H12.637V10.944Z" fill="#000"/>
<path d="M16.7833 8.17288C16.3679 7.52626 15.7826 7.0092 15.0908 6.67756C14.6874 6.48416 14.4069 6.22567 14.1813 5.8394L13.9573 5.45577C14.1635 5.42987 14.3632 5.36259 14.5434 5.25679C14.7945 5.10937 14.8786 4.78627 14.7312 4.53515C14.5838 4.28404 14.2607 4.2 14.0095 4.34742C13.6093 4.58131 13.1403 4.16404 13.3259 3.73939C13.4431 3.47281 13.3219 3.16173 13.0553 3.04458C12.7888 2.92753 12.4777 3.04858 12.3605 3.3152C12.0667 3.946 12.2935 4.76026 12.8362 5.1533L12.4354 5.8394C12.2099 6.22567 11.9294 6.48416 11.5259 6.67752C10.2761 7.26579 9.37208 8.51728 9.21278 9.8895H17.4037C17.3281 9.27902 17.1178 8.69342 16.7833 8.17288Z" fill="#000"/>
<path d="M9.18056 10.944H11.5825V12.0337H9.18056V10.944Z" fill="#000"/>
<path d="M14.5489 14.886H14.5494C15.5375 14.8877 16.5445 14.6616 17.4409 14.2435V13.0881H9.93856C11.1725 14.2132 12.8067 14.886 14.5489 14.886Z" fill="#000"/>
</svg>
