<svg width="40" height="40" viewBox="0 0 40 40" fill="none" xmlns="http://www.w3.org/2000/svg">
<path d="M29.8655 12.0659H12.7829C12.3776 12.0659 12.0397 12.3743 12.0052 12.7757L10.253 33.1581C10.2141 33.611 10.5734 34 11.0307 34H31.6177C32.075 34 32.4343 33.611 32.3953 33.1581L30.6431 12.7757C30.6086 12.3743 30.2707 12.0659 29.8655 12.0659Z" fill="#00A9BA"/>
<path d="M31.6174 33.9998H30.3395C30.7972 33.9998 31.1562 33.6112 31.1173 33.1579L29.3648 12.7756C29.3305 12.3743 28.9925 12.0659 28.5876 12.0659H29.8655C30.2704 12.0659 30.6084 12.3743 30.6427 12.7756L32.3952 33.1579C32.4341 33.6112 32.0751 33.9998 31.6174 33.9998Z" fill="#026E78"/>
<path d="M25.5196 14.5029C25.283 14.5029 25.0911 14.3122 25.0911 14.0769V10.5966C25.0911 8.53181 23.4012 6.85193 21.3242 6.85193C19.2471 6.85193 17.5572 8.53181 17.5572 10.5966V14.0769C17.5572 14.3122 17.3653 14.5029 17.1287 14.5029C16.892 14.5029 16.7002 14.3122 16.7002 14.0769V10.5966C16.7002 8.06206 18.7745 6 21.3242 6C23.8738 6 25.9481 8.06206 25.9481 10.5966V14.0769C25.9481 14.3122 25.7563 14.5029 25.5196 14.5029Z" fill="#FFBE17" stroke="#FFBE17" stroke-width="0.538461"/>
<path d="M17.1287 15.8416C17.6897 15.8416 18.1445 15.3895 18.1445 14.8318C18.1445 14.2741 17.6897 13.8221 17.1287 13.8221C16.5677 13.8221 16.1129 14.2741 16.1129 14.8318C16.1129 15.3895 16.5677 15.8416 17.1287 15.8416Z" fill="#026E78"/>
<path d="M25.5197 15.8416C26.0807 15.8416 26.5354 15.3895 26.5354 14.8318C26.5354 14.2741 26.0807 13.8221 25.5197 13.8221C24.9587 13.8221 24.5039 14.2741 24.5039 14.8318C24.5039 15.3895 24.9587 15.8416 25.5197 15.8416Z" fill="#026E78"/>
<path d="M21.7782 18.4088L22.3476 19.5556C22.4214 19.7042 22.564 19.8072 22.7289 19.831L24.002 20.0149C24.4174 20.0749 24.5832 20.5823 24.2827 20.8736L23.3614 21.7663C23.242 21.8819 23.1876 22.0486 23.2157 22.2118L23.4333 23.4724C23.5042 23.8835 23.07 24.1972 22.6985 24.003L21.5598 23.4078C21.4123 23.3308 21.236 23.3308 21.0885 23.4078L19.9498 24.003C19.5783 24.1971 19.1441 23.8835 19.2151 23.4724L19.4326 22.2118C19.4607 22.0486 19.4063 21.8819 19.2869 21.7663L18.3657 20.8736C18.0651 20.5823 18.2309 20.0749 18.6463 20.0149L19.9194 19.831C20.0844 19.8072 20.2269 19.7042 20.3008 19.5556L20.8701 18.4088C21.0558 18.0346 21.5925 18.0346 21.7782 18.4088Z" fill="#C6E8E9"/>
<path d="M19.1335 29.4866C18.9096 29.4866 18.7212 29.3138 18.7063 29.0885C18.5717 27.0501 17.4774 26.4305 17.4308 26.4051C17.2208 26.2965 17.1412 26.0404 17.2504 25.8317C17.3596 25.623 17.6205 25.5429 17.8303 25.6514C17.8941 25.6844 19.3934 26.4879 19.5614 29.0328C19.5769 29.2675 19.3981 29.4703 19.1619 29.4857C19.1524 29.4863 19.1429 29.4866 19.1335 29.4866Z" fill="#C6E8E9"/>
<path d="M23.5148 29.4866C23.5054 29.4866 23.4959 29.4863 23.4863 29.4856C23.2502 29.4703 23.0713 29.2674 23.0867 29.0327C23.2547 26.4878 24.7541 25.6843 24.8178 25.6514C25.0277 25.5428 25.2865 25.624 25.3957 25.8328C25.5043 26.0403 25.4241 26.2958 25.2167 26.4054C25.1619 26.4355 24.0759 27.0585 23.9419 29.0885C23.9271 29.3137 23.7386 29.4866 23.5148 29.4866Z" fill="#C6E8E9"/>
<path d="M21.3241 29.4866C21.0875 29.4866 20.8956 29.2958 20.8956 29.0606V25.6631C20.8956 25.4279 21.0875 25.2372 21.3241 25.2372C21.5608 25.2372 21.7526 25.4279 21.7526 25.6631V29.0606C21.7526 29.2958 21.5608 29.4866 21.3241 29.4866Z" fill="#C6E8E9"/>
<path d="M30.4719 14.8397C30.6189 14.5406 31.0477 14.5406 31.1947 14.8397L31.6523 15.7713C31.6916 15.8513 31.7567 15.916 31.8372 15.9551L32.7743 16.41C33.0752 16.5561 33.0752 16.9824 32.7743 17.1285L31.8372 17.5834C31.7567 17.6224 31.6916 17.6871 31.6523 17.7672L31.1947 18.6987C31.0477 18.9979 30.6189 18.9979 30.4719 18.6987L30.0143 17.7672C29.975 17.6871 29.9099 17.6224 29.8294 17.5834L28.8923 17.1285C28.5914 16.9824 28.5914 16.5561 28.8923 16.41L29.8294 15.9551C29.9099 15.916 29.975 15.8513 30.0143 15.7713L30.4719 14.8397Z" fill="#FFBE17"/>
<path d="M9.70795 25.7211C9.92836 25.2724 10.5716 25.2724 10.7921 25.7211L11.4784 27.1185C11.5374 27.2385 11.635 27.3356 11.7558 27.3942L13.1615 28.0765C13.6128 28.2956 13.6128 28.9351 13.1615 29.1542L11.7558 29.8366C11.635 29.8952 11.5374 29.9922 11.4784 30.1123L10.7921 31.5096C10.5716 31.9583 9.92836 31.9583 9.70795 31.5096L9.02155 30.1123C8.96258 29.9922 8.86496 29.8952 8.74419 29.8366L7.33854 29.1542C6.88715 28.9351 6.88715 28.2956 7.33854 28.0765L8.74419 27.3942C8.86496 27.3356 8.96258 27.2385 9.02155 27.1185L9.70795 25.7211Z" fill="#FFBE17"/>
</svg>
