<svg width="40" height="40" viewBox="0 0 40 40" fill="none" xmlns="http://www.w3.org/2000/svg">
<path fill-rule="evenodd" clip-rule="evenodd" d="M20.7622 26.3763V26.378H15.2738L12.7671 24.3855C10.9703 22.9573 8.04685 22.9573 6.25014 24.3855C6.09 24.5128 6 24.6854 6 24.8654C6 25.0454 6.09 25.2181 6.25014 25.3454L12.4198 30.2495C12.4069 30.2752 12.3952 30.3015 12.386 30.329L11.7815 32.1477C11.6611 32.5101 11.9331 32.8816 12.389 32.9773C12.4621 32.9927 12.5355 33 12.6076 33C12.9858 33 13.3315 32.7988 13.4327 32.4944L14.0225 30.7196H30.517V32.3211C30.517 32.696 30.8993 32.9999 31.3709 32.9999C31.8425 32.9999 32.2248 32.696 32.2248 32.3211V30.7197H33.1461C33.6177 30.7197 34 30.4158 34 30.0409C34.0001 28.0212 31.9328 26.378 29.3919 26.378H22.47V26.3763H20.7622Z" fill="#026E78"/>
<path fill-rule="evenodd" clip-rule="evenodd" d="M20.9751 7C19.9556 7 19.1292 7.82817 19.1292 8.84766C19.1292 9.18366 19.2189 9.49889 19.3758 9.77053H22.5744C22.7313 9.49889 22.8211 9.18366 22.8211 8.84766C22.8211 7.82817 21.9946 7 20.9751 7ZM21.0444 10.694H20.9058C20.9288 10.6949 20.9519 10.6953 20.9751 10.6953C20.9983 10.6953 21.0214 10.6949 21.0444 10.694Z" fill="#FFBE17"/>
<path fill-rule="evenodd" clip-rule="evenodd" d="M20.3074 18.8862V26.38H21.7753V18.8862H29.6034C30.0088 18.8862 30.3374 18.5573 30.3374 18.1516C30.3373 13.0211 26.1672 8.84703 21.0414 8.84703C15.9155 8.84703 11.7454 13.0211 11.7454 18.1516C11.7454 18.5573 12.074 18.8862 12.4793 18.8862H20.3074ZM25.7525 17.417H28.8353C28.5622 14.4893 26.6728 12.0245 24.0717 10.9273C24.2329 11.1891 24.3857 11.4738 24.5289 11.7813C25.2449 13.3187 25.6721 15.2976 25.7525 17.417ZM17.5539 11.7813C17.6971 11.4738 17.8499 11.1891 18.011 10.9273C15.4099 12.0245 13.5205 14.4893 13.2474 17.417H16.3302C16.4107 15.2976 16.8378 13.3187 17.5539 11.7813Z" fill="#00A9BA"/>
<path d="M11.471 21.7232C11.602 21.4549 11.9842 21.4549 12.1152 21.7232L12.523 22.5587C12.558 22.6304 12.616 22.6885 12.6878 22.7235L13.523 23.1315C13.7912 23.2625 13.7912 23.6448 13.523 23.7758L12.6878 24.1838C12.616 24.2189 12.558 24.2769 12.523 24.3487L12.1152 25.1842C11.9842 25.4524 11.602 25.4524 11.471 25.1842L11.0632 24.3487C11.0282 24.2769 10.9702 24.2189 10.8984 24.1838L10.0632 23.7758C9.79501 23.6448 9.79501 23.2625 10.0632 23.1315L10.8984 22.7235C10.9702 22.6885 11.0282 22.6304 11.0632 22.5587L11.471 21.7232Z" fill="#FFBE17"/>
<path d="M29.6549 14.0969C29.8513 13.6945 30.4247 13.6945 30.6211 14.0969L31.2329 15.3502C31.2854 15.4578 31.3724 15.5449 31.4801 15.5974L32.7328 16.2094C33.1351 16.4059 33.1351 16.9794 32.7328 17.176L31.4801 17.7879C31.3724 17.8405 31.2854 17.9275 31.2329 18.0352L30.6211 19.2884C30.4247 19.6909 29.8513 19.6909 29.6549 19.2884L29.0432 18.0352C28.9906 17.9275 28.9036 17.8405 28.796 17.7879L27.5432 17.176C27.1409 16.9794 27.1409 16.4059 27.5432 16.2094L28.796 15.5974C28.9036 15.5449 28.9906 15.4578 29.0432 15.3502L29.6549 14.0969Z" fill="#FFBE17"/>
<path d="M29.9583 29.4469C30.0571 29.2443 30.3456 29.2443 30.4444 29.4469L30.7522 30.0778C30.7786 30.132 30.8224 30.1758 30.8766 30.2023L31.5069 30.5103C31.7093 30.6093 31.7093 30.898 31.5069 30.9969L30.8766 31.305C30.8224 31.3314 30.7786 31.3753 30.7522 31.4295L30.4444 32.0603C30.3456 32.2629 30.0571 32.2629 29.9583 32.0603L29.6505 31.4295C29.6241 31.3753 29.5803 31.3314 29.5261 31.305L28.8958 30.9969C28.6934 30.898 28.6934 30.6093 28.8958 30.5103L29.5261 30.2023C29.5803 30.1758 29.6241 30.132 29.6505 30.0778L29.9583 29.4469Z" fill="#FFBE17"/>
</svg>
