<svg width="24" height="24" viewBox="0 0 24 24" fill="none" xmlns="http://www.w3.org/2000/svg">
<path d="M10.5975 17.0968C10.5975 17.8701 11.2267 18.4993 12 18.4993C12.7733 18.4993 13.4025 17.8701 13.4025 17.0968V15.6943H10.5975V17.0968H10.5975Z" fill="#000"/>
<path d="M18.1803 7.49145H15.8098V5.80973C15.8097 3.70906 14.1007 2 12 2C9.89935 2 8.19029 3.70906 8.19029 5.80973V7.49145H5.8197C5.49611 7.49145 5.23376 7.75379 5.23376 8.07738V21.4141C5.23376 21.7377 5.49611 22 5.8197 22H18.1803C18.5039 22 18.7663 21.7377 18.7663 21.4141V8.07738C18.7663 7.75379 18.5039 7.49145 18.1803 7.49145ZM9.36216 5.80973C9.36216 4.35523 10.5455 3.17188 12 3.17188C13.4545 3.17188 14.6379 4.35523 14.6379 5.80973V7.49145H9.36216V5.80973ZM12.8594 12.0107C12.8594 12.5071 12.5045 12.7532 12.334 12.8715C12.3231 12.879 12.3107 12.8876 12.2988 12.8961C12.2409 13.1587 12.0067 13.3553 11.7266 13.3553C11.403 13.3553 11.1407 13.0929 11.1407 12.7693C11.1407 12.3861 11.3523 12.152 11.5272 12.0107C11.3523 11.8695 11.1407 11.6355 11.1407 11.2522C11.1407 10.7559 11.4956 10.5097 11.6661 10.3914C11.677 10.3839 11.6894 10.3754 11.7013 10.3669C11.7592 10.1042 11.9934 9.90777 12.2735 9.90777C12.5971 9.90777 12.8594 10.1701 12.8594 10.4937C12.8594 10.877 12.6478 11.111 12.4729 11.2522C12.6478 11.3935 12.8594 11.6275 12.8594 12.0107ZM14.7495 19.6712H9.25048C8.92689 19.6712 8.66455 19.4088 8.66455 19.0852C8.66455 18.7616 8.92689 18.4993 9.25048 18.4993H9.84248C9.57904 18.0956 9.42568 17.6138 9.42568 17.0968V15.1084C9.42568 14.7848 9.68802 14.5225 10.0116 14.5225H13.9885C14.312 14.5225 14.5744 14.7848 14.5744 15.1084V17.0968C14.5744 17.614 14.4208 18.0956 14.1572 18.4993H14.7496C15.0732 18.4993 15.3355 18.7616 15.3355 19.0852C15.3355 19.4088 15.0731 19.6712 14.7495 19.6712Z" fill="#000"/>
</svg>
