<svg width="24" height="24" viewBox="0 0 24 24" fill="none" xmlns="http://www.w3.org/2000/svg">
<g clip-path="url(#clip0)">
<path d="M20.7545 10.6947L12.5826 3.26569L12.5045 3.19471C12.4508 3.14595 12.3919 3.10633 12.3297 3.07585C12.3269 3.07451 12.324 3.07353 12.3212 3.07219C12.1183 2.97594 11.8817 2.97594 11.6787 3.07219C11.6759 3.07349 11.673 3.07448 11.6703 3.07585C11.608 3.10633 11.5491 3.14595 11.4954 3.19471L11.4185 3.26467L3.24551 10.6947C2.93901 10.9733 2.91641 11.4477 3.19506 11.7542C3.47367 12.0607 3.94803 12.0833 4.25452 11.8046L4.50002 11.5814V20.2497C4.50002 20.6639 4.8358 20.9997 5.25001 20.9997H9.00002H15H18.75C19.1642 20.9997 19.5 20.6639 19.5 20.2497V11.5814L19.7455 11.8046C20.052 12.0833 20.5263 12.0607 20.8049 11.7542C21.0836 11.4477 21.061 10.9733 20.7545 10.6947ZM10.5 19.4997V14.9997C10.5 14.1712 11.1714 13.4997 12 13.4997C12.8286 13.4997 13.5 14.1711 13.5 14.9997V19.4997H10.5Z" fill="#000"/>
</g>
<defs>
<clipPath id="clip0">
<rect width="24" height="24" fill="white"/>
</clipPath>
</defs>
</svg>
