<svg width="22" height="16" viewBox="0 0 22 16" fill="none" xmlns="http://www.w3.org/2000/svg">
<path d="M18.752 13.7333L13.9333 8.96658L13.1411 9.75118C13.141 9.75124 13.141 9.75129 13.1409 9.75134L13.1409 9.75137L13.0705 9.68031C12.5182 10.2301 11.7825 10.5335 11 10.5335C10.2175 10.5335 9.48176 10.2301 8.9284 9.67922L18.752 13.7333ZM18.752 13.7333H3.24801L8.06668 8.96658L8.85784 9.75009C8.85787 9.75011 8.85789 9.75014 8.85792 9.75016L18.752 13.7333ZM9.82631 8.78213L3.24708 2.26667H18.7529L12.1726 8.78322L12.1724 8.7834C11.8592 9.09525 11.4432 9.26683 11 9.26683C10.5569 9.26683 10.1409 9.09525 9.82649 8.78231L9.82631 8.78213ZM19.2422 0.9H2.75781C1.73161 0.9 0.9 1.7325 0.9 2.75V13.25C0.9 14.2736 1.73782 15.1 2.75781 15.1H19.2422C20.2596 15.1 21.1 14.2772 21.1 13.25V2.75C21.1 1.73439 20.2717 0.9 19.2422 0.9ZM7.09371 8.00307L2.27188 12.773V3.22796L7.09371 8.00307ZM19.7281 3.22796V12.773L14.9063 8.00307L19.7281 3.22796Z" fill="#000" stroke="#E3E1EE" stroke-width="0.2"/>
</svg>
