<svg width="25" height="25" viewBox="0 0 25 25" fill="none" xmlns="http://www.w3.org/2000/svg">
<g clip-path="url(#clip0)">
<path d="M19.42 9H20.2894L19.8522 8.24855C18.8329 6.49675 17.2081 5.13672 15.252 4.46696L14.042 4.05268L14.6501 5.17776C15.2294 6.24935 15.675 7.4108 15.9856 8.624L16.0819 9H16.47H19.42ZM12.9112 4.25557L12.5 3.66104L12.0888 4.25557C11.2299 5.49739 10.5566 6.87461 10.1112 8.35602L9.91753 9H10.59H14.41H15.0825L14.8888 8.35602C14.4434 6.87461 13.7701 5.49739 12.9112 4.25557ZM4.27493 14.6213L4.36961 15H4.76H8.14H8.70427L8.63637 14.4398C8.55746 13.7888 8.5 13.1512 8.5 12.5C8.5 11.8488 8.55746 11.2112 8.63637 10.5602L8.70427 10H8.14H4.76H4.36961L4.27493 10.3787C4.10698 11.0505 4 11.7617 4 12.5C4 13.2383 4.10698 13.9495 4.27493 14.6213ZM9.01438 16.376L8.91812 16H8.53H5.58V16.5L5.14717 16.7503C6.16719 18.5141 7.79303 19.8637 9.74803 20.533L10.958 20.9473L10.3499 19.8222C9.77061 18.7507 9.32496 17.5892 9.01438 16.376ZM5.14717 8.24969L4.71325 9H5.58H8.53V8.5L9.01438 8.624C9.32496 7.4108 9.77061 6.24935 10.3499 5.17776L10.958 4.05268L9.74803 4.46696C7.79303 5.13633 6.16719 6.4859 5.14717 8.24969ZM12.0888 20.7444L12.5 21.339L12.9112 20.7444C13.7701 19.5026 14.4434 18.1254 14.8888 16.644L15.0825 16H14.41H10.59H9.91753L10.1112 16.644C10.5566 18.1254 11.2299 19.5026 12.0888 20.7444ZM14.84 15H15.2764L15.3354 14.5676C15.4266 13.8991 15.5 13.2133 15.5 12.5C15.5 11.787 15.4267 11.0914 15.3353 10.4314L15.2755 10H14.84H10.16H9.72446L9.66472 10.4314C9.57334 11.0914 9.5 11.787 9.5 12.5C9.5 13.2133 9.57343 13.8991 9.66458 14.5676L9.72355 15H10.16H14.84ZM16.47 16H16.0819L15.9856 16.376C15.675 17.5892 15.2294 18.7507 14.6501 19.8222L15.09 20.06L15.252 20.533C17.2081 19.8633 18.8329 18.5033 19.8522 16.7514L20.2894 16H19.42H16.47ZM16.3636 14.4398L16.2957 15H16.86H20.24H20.6304L20.7251 14.6213C20.893 13.9495 21 13.2383 21 12.5C21 11.7617 20.893 11.0505 20.7251 10.3787L20.6304 10H20.24H16.86H16.2957L16.3636 10.5602C16.4425 11.2112 16.5 11.8488 16.5 12.5C16.5 13.1512 16.4425 13.7888 16.3636 14.4398ZM3 12.5C3 7.25549 7.24679 3 12.49 3C17.7442 3 22 7.25647 22 12.5C22 17.7435 17.7442 22 12.49 22C7.24679 22 3 17.7445 3 12.5Z" fill="#000" stroke="#000"/>
</g>
<defs>
<clipPath id="clip0">
<rect width="24" height="24" fill="white" transform="translate(0.5 0.5)"/>
</clipPath>
</defs>
</svg>
