<svg width="24" height="24" viewBox="0 0 24 24" fill="none" xmlns="http://www.w3.org/2000/svg">
<path fill-rule="evenodd" clip-rule="evenodd" d="M20.47 12.5662H19.9161C19.6748 8.93252 16.9754 5.95222 13.4653 5.30727C13.5596 5.10481 13.616 4.81941 13.616 4.58168C13.616 3.70952 12.9065 3 12.0344 3C11.1622 3 10.4527 3.70952 10.4527 4.58168C10.4527 4.81941 10.5091 5.10481 10.6035 5.30727C7.09335 5.95222 4.32363 8.93249 4.08239 12.5662H3.52843C3.23702 12.5662 3.00119 12.788 3.00119 13.0794C3.00119 13.3708 3.23698 13.6066 3.52843 13.6066H20.47C20.7614 13.6066 20.9973 13.3708 20.9973 13.0794C20.9973 12.788 20.7614 12.5662 20.47 12.5662ZM12.0344 5.17097C11.7435 5.17097 11.5071 4.8726 11.5071 4.58168C11.5071 4.29076 11.7435 4.05444 12.0344 4.05444C12.3252 4.05444 12.5616 4.29076 12.5616 4.58168C12.5616 4.8726 12.3253 5.17097 12.0344 5.17097ZM4.5837 15.7155C4.28842 15.7155 4.05646 15.9475 4.05646 16.2428V20.4688C4.05646 20.764 4.28842 20.996 4.5837 20.996H6.16538V15.7155H4.5837ZM17.8635 15.2641C18.2754 14.8523 18.9426 14.8523 19.3545 15.2641C19.7664 15.6761 19.7664 16.3293 19.3545 16.7412L16.3354 19.7604C15.5389 20.5574 14.4793 20.996 13.3527 20.996C13.3498 20.996 13.3503 20.9961 13.3512 20.9962C13.3629 20.9972 13.4454 21.0044 7.21985 20.996V15.5796C7.21985 15.2749 7.38913 14.9951 7.65916 14.854C8.9301 14.1899 10.4541 14.3705 11.508 15.1145C11.6474 15.2032 11.7941 15.3369 11.9362 15.4665C11.9876 15.5133 12.0383 15.5596 12.0879 15.603C12.231 15.7301 12.3646 15.7299 12.5374 15.7296C12.5456 15.7296 12.554 15.7295 12.5624 15.7295H13.6169C14.1968 15.7295 14.6713 16.19 14.6713 16.7699C14.6713 17.3499 14.1968 17.8244 13.6169 17.8244H11.993C11.7038 17.8244 11.4658 18.0395 11.4658 18.3516C11.4658 18.6637 11.7039 18.8789 11.993 18.8789H13.4371C13.9684 18.8578 14.4661 18.6475 14.8443 18.2692L17.8635 15.2641Z" fill="#000"/>
</svg>
