<svg width="12" height="12" viewBox="0 0 12 12" fill="none" xmlns="http://www.w3.org/2000/svg">
<path fill-rule="evenodd" clip-rule="evenodd" d="M4.89239 0.707856C5.32921 -0.235953 6.67079 -0.235951 7.10761 0.707856L8.17219 3.00801C8.21553 3.10165 8.3043 3.16615 8.40676 3.17844L10.9233 3.48012C11.9559 3.60391 12.3705 4.87983 11.6078 5.58692L9.74924 7.31018C9.67357 7.38034 9.63967 7.4847 9.65965 7.58594L10.1504 10.0725C10.3517 11.0929 9.26638 11.8814 8.35823 11.3746L6.14497 10.1395C6.05487 10.0892 5.94513 10.0892 5.85503 10.1395L3.64177 11.3746C2.73362 11.8814 1.64826 11.0929 1.84962 10.0725L2.34035 7.58594C2.36033 7.4847 2.32643 7.38034 2.25076 7.31018L0.392153 5.58692C-0.370479 4.87982 0.0440974 3.60391 1.0767 3.48012L3.59324 3.17843C3.6957 3.16615 3.78447 3.10165 3.82781 3.00801L4.89239 0.707856ZM6.26998 1.09553C6.16351 0.865476 5.83649 0.865477 5.73002 1.09553L4.66544 3.39568C4.48763 3.77987 4.12343 4.04447 3.7031 4.09486L1.18656 4.39655C0.934855 4.42672 0.833804 4.73773 1.0197 4.91009L2.8783 6.63335C3.18873 6.92118 3.32785 7.34931 3.24588 7.76464L2.75514 10.2512C2.70606 10.5 2.97062 10.6922 3.19199 10.5686L5.40524 9.33351C5.77491 9.12721 6.22509 9.12722 6.59476 9.33351L8.80801 10.5686C9.02938 10.6922 9.29394 10.5 9.24485 10.2512L8.75412 7.76464C8.67215 7.34932 8.81126 6.92118 9.1217 6.63335L10.9803 4.91009C11.1662 4.73773 11.0651 4.42672 10.8134 4.39655L8.2969 4.09486C7.87657 4.04448 7.51237 3.77987 7.33456 3.39569L6.26998 1.09553Z" fill="#000"/>
</svg>
