<svg width="24" height="24" viewBox="0 0 24 24" fill="none" xmlns="http://www.w3.org/2000/svg">
<g clip-path="url(#clip0)">
<path d="M19.752 17.7333L14.9333 12.9666L14.1411 13.7511C14.141 13.7512 14.141 13.7513 14.1409 13.7513L14.1409 13.7513L14.0705 13.6803C13.5182 14.2301 12.7825 14.5335 12 14.5335C11.2175 14.5335 10.4818 14.2301 9.9284 13.6792L19.752 17.7333ZM19.752 17.7333H4.24801L9.06668 12.9666L9.85784 13.7501C9.85787 13.7501 9.85789 13.7501 9.85792 13.7501L19.752 17.7333ZM10.8263 12.7821L4.24708 6.26664H19.7529L13.1726 12.7832L13.1724 12.7834C12.8592 13.0952 12.4432 13.2668 12 13.2668C11.5569 13.2668 11.1409 13.0952 10.8265 12.7823L10.8263 12.7821ZM20.2422 4.89997H3.75781C2.73161 4.89997 1.9 5.73247 1.9 6.74997V17.25C1.9 18.2736 2.73782 19.1 3.75781 19.1H20.2422C21.2596 19.1 22.1 18.2771 22.1 17.25V6.74997C22.1 5.73436 21.2717 4.89997 20.2422 4.89997ZM8.09371 12.003L3.27188 16.7729V7.22793L8.09371 12.003ZM20.7281 7.22793V16.7729L15.9063 12.003L20.7281 7.22793Z" fill="#000" stroke="#E3E1EE" stroke-width="0.2"/>
</g>
<defs>
<clipPath id="clip0">
<rect width="24" height="24" fill="white"/>
</clipPath>
</defs>
</svg>
