<svg width="25" height="24" viewBox="0 0 25 24" fill="none" xmlns="http://www.w3.org/2000/svg">
<g clip-path="url(#clip0)">
<path d="M17.8591 14.7797C17.3615 14.0658 17.1128 13.2615 17.1128 12.3675C17.1128 11.5526 17.3475 10.8061 17.8159 10.1283C18.0683 9.76051 18.4794 9.33514 19.0491 8.85188C18.6742 8.39048 18.2992 8.02991 17.924 7.77022C17.2461 7.30155 16.478 7.06721 15.62 7.06721C15.1081 7.06721 14.4841 7.18974 13.7487 7.43511C13.042 7.68028 12.5263 7.803 12.2019 7.803C11.9566 7.803 11.4591 7.6949 10.7091 7.47845C9.9519 7.26207 9.31364 7.15398 8.79443 7.15398C7.55405 7.15398 6.53002 7.67327 5.72237 8.71162C4.90748 9.76452 4.49995 11.113 4.49995 12.7573C4.49995 14.5025 5.03012 16.316 6.09014 18.1982C7.16457 20.066 8.24994 21 9.34607 21C9.71385 21 10.1898 20.8774 10.7739 20.6322C11.3581 20.3944 11.8701 20.2752 12.31 20.2752C12.7786 20.2752 13.3232 20.3906 13.9433 20.6213C14.5995 20.8518 15.1045 20.9672 15.4578 20.9672C16.3808 20.9672 17.3076 20.2605 18.2377 18.8471C18.8434 17.9457 19.2869 17.0443 19.5682 16.1428C18.9264 15.9479 18.3567 15.4936 17.8591 14.7797Z" fill="white"/>
<path d="M14.1811 6.4182C14.6355 5.96389 14.9708 5.46623 15.1872 4.92546C15.3963 4.38461 15.5006 3.89415 15.5006 3.4542C15.5006 3.42544 15.499 3.38934 15.4951 3.34603C15.4919 3.30276 15.49 3.26681 15.49 3.23794C15.4827 3.21626 15.4737 3.1766 15.463 3.11897C15.4522 3.06134 15.4432 3.02167 15.4359 3C14.1666 3.29583 13.2653 3.82944 12.7316 4.6011C12.1909 5.37996 11.9095 6.30654 11.8878 7.38104C12.371 7.33774 12.7458 7.27655 13.0128 7.19717C13.4025 7.06733 13.7914 6.80761 14.1811 6.4182Z" fill="white"/>
</g>
<defs>
<clipPath id="clip0">
<rect width="24" height="24" fill="white" transform="translate(0.499954)"/>
</clipPath>
</defs>
</svg>
