<svg width="24" height="24" viewBox="0 0 24 24" fill="none" xmlns="http://www.w3.org/2000/svg">
<g clip-path="url(#clip0)">
<path d="M13.6411 19.7636C13.4841 19.806 13.324 19.8437 13.165 19.8764C12.7491 19.9611 12.4807 20.367 12.5657 20.7829C12.5704 20.8066 12.5764 20.8292 12.5832 20.8519C12.6966 21.2278 13.0801 21.4623 13.4724 21.3823C13.6621 21.3435 13.8533 21.2983 14.0408 21.2478C14.4507 21.1376 14.6935 20.7158 14.5832 20.3058C14.4728 19.8953 14.0511 19.6532 13.6411 19.7636Z" fill="#000"/>
<path d="M8.28366 19.3357C8.13523 19.2696 7.98715 19.1981 7.84349 19.123C7.46702 18.9267 7.00292 19.0726 6.80661 19.449C6.7097 19.6341 6.6961 19.8407 6.75209 20.0261C6.8099 20.2173 6.94143 20.3861 7.13224 20.4857C7.30373 20.575 7.47998 20.6604 7.65679 20.7393C8.04427 20.9123 8.49883 20.7386 8.67196 20.3511C8.84509 19.9634 8.67118 19.5091 8.28366 19.3357Z" fill="#000"/>
<path d="M10.9266 20.0113C10.7649 19.9983 10.6009 19.98 10.44 19.9574C10.0196 19.8975 9.63073 20.19 9.57102 20.6103C9.55481 20.7245 9.56473 20.8362 9.59593 20.9397C9.6797 21.2173 9.91806 21.4355 10.2242 21.4792C10.4157 21.5063 10.6106 21.528 10.8032 21.5433C11.2265 21.5776 11.597 21.2622 11.6311 20.8392C11.6651 20.416 11.3499 20.0454 10.9266 20.0113Z" fill="#000"/>
<path d="M16.1166 18.6172C15.9831 18.7091 15.8445 18.7983 15.7051 18.8824C15.3979 19.0675 15.2668 19.4336 15.3657 19.7619C15.3839 19.8221 15.4099 19.881 15.4438 19.9375C15.6627 20.301 16.1351 20.4178 16.4987 20.1989C16.6645 20.099 16.8292 19.9926 16.9879 19.8834C17.3375 19.6428 17.4261 19.1642 17.1854 18.8147C16.9448 18.4649 16.4661 18.3766 16.1166 18.6172Z" fill="#000"/>
<path d="M19.1378 16.5388C18.7936 16.2905 18.3132 16.3684 18.0649 16.7125C17.9701 16.8441 17.8697 16.9747 17.767 17.0999C17.5984 17.3058 17.5546 17.5727 17.6259 17.8096C17.6686 17.9506 17.7521 18.0813 17.8745 18.1816C18.2029 18.4505 18.6871 18.4023 18.956 18.0739C19.0787 17.9243 19.1985 17.7686 19.3114 17.6117C19.5598 17.2674 19.4821 16.7872 19.1378 16.5388Z" fill="#000"/>
<path d="M20.2136 13.7393C19.8062 13.6203 19.3795 13.8543 19.2607 14.2618C19.215 14.4178 19.1641 14.5745 19.1096 14.7274C19.0518 14.8884 19.051 15.0562 19.097 15.2081C19.1649 15.4336 19.3351 15.6248 19.5734 15.7102C19.9731 15.8535 20.4129 15.6459 20.5565 15.2464C20.6216 15.0643 20.6822 14.8777 20.7361 14.6921C20.8549 14.2848 20.621 13.8579 20.2136 13.7393Z" fill="#000"/>
<path d="M21.6557 8.73187L20.6456 9.04572C19.8791 6.69667 18.2651 4.76634 16.0806 3.59398C15.8607 3.47589 15.6377 3.36737 15.4119 3.26766C15.4102 3.26688 15.4089 3.26623 15.4074 3.26523C15.398 3.26124 15.388 3.25751 15.3788 3.25344C13.3872 2.38197 11.1832 2.21677 9.07047 2.78891C9.05387 2.79216 9.03727 2.79528 9.02089 2.79992C8.95034 2.81916 8.87913 2.84 8.80888 2.86098C8.69356 2.89582 8.57755 2.93335 8.46375 2.9724C8.45027 2.97704 8.43757 2.9828 8.42448 2.988C6.53853 3.64131 4.9325 4.84582 3.78675 6.45519C3.78267 6.46074 3.77808 6.46551 3.77422 6.47101C3.66224 6.62828 3.55377 6.79136 3.45132 6.95587C3.4449 6.9664 3.43957 6.97736 3.43346 6.98824C3.33127 7.15396 3.23307 7.3235 3.14007 7.49641C2.19047 9.26613 1.82821 11.2435 2.07536 13.1967C2.07592 13.2012 2.07644 13.2053 2.07683 13.2097C2.07722 13.2129 2.07792 13.2161 2.07866 13.2194C2.14583 13.7411 2.25616 14.2612 2.41109 14.7749C2.81794 16.1238 3.49682 17.3367 4.42875 18.3801C4.71144 18.6965 5.19733 18.7238 5.51395 18.4411C5.8304 18.1584 5.85801 17.6723 5.5751 17.356C5.10988 16.8354 4.72054 16.2635 4.4089 15.6475C4.40556 15.6399 4.40261 15.6321 4.39897 15.6248C4.32569 15.4795 4.25605 15.3305 4.19156 15.1814C4.19122 15.1802 4.19082 15.1795 4.1903 15.1785C4.07295 14.904 3.97063 14.6215 3.88291 14.3312C2.87563 10.9913 4.16023 7.49654 6.82603 5.54256C6.86547 5.51387 6.90486 5.48492 6.94469 5.4571C7.62907 4.97441 8.40099 4.59165 9.24581 4.33691C10.096 4.08062 10.9558 3.97297 11.7978 3.99819C11.8114 3.9988 11.8246 3.99919 11.8381 3.99958C11.8895 4.00114 11.9407 4.00387 11.9919 4.00673C12.0125 4.00781 12.0331 4.00894 12.0538 4.01024C14.6794 4.17449 17.1006 5.63278 18.4599 7.92381C18.4606 7.92511 18.4611 7.92658 18.462 7.92788C18.4822 7.9619 18.5019 7.99588 18.5216 8.03029C18.524 8.03414 18.5265 8.03757 18.5288 8.04151C18.7888 8.49755 19.0077 8.98557 19.1778 9.50202L18.1678 9.81604C17.8873 9.90319 17.8597 10.105 18.1059 10.2646L20.3039 11.6883C20.5503 11.848 20.8442 11.7566 20.9566 11.4856L21.9608 9.06657C22.073 8.79545 21.936 8.64476 21.6557 8.73187Z" fill="#000"/>
<path d="M8.72975 12.0209C7.98903 12.5696 7.4838 13.0456 7.21451 13.4488C6.94547 13.852 6.78408 14.2824 6.73108 14.7401H11.3654V13.481H8.95333C9.09496 13.3418 9.21816 13.2295 9.32313 13.1436C9.42813 13.0574 9.63589 12.9072 9.94697 12.6922C10.4702 12.3231 10.8312 11.9842 11.0297 11.6757C11.2281 11.3674 11.3274 11.0437 11.3274 10.7049C11.3274 10.3864 11.2408 10.0988 11.0677 9.842C10.8944 9.58549 10.6566 9.39515 10.3545 9.27125C10.0525 9.14752 9.62956 9.08542 9.0859 9.08542C8.56524 9.08542 8.15766 9.15064 7.86296 9.28104C7.56862 9.41123 7.34027 9.59823 7.17858 9.842C7.01672 10.0862 6.9056 10.4256 6.8448 10.8603L8.39211 10.9854C8.43506 10.6721 8.51922 10.4533 8.64425 10.3295C8.76954 10.2056 8.93045 10.1436 9.12793 10.1436C9.31745 10.1436 9.47489 10.2037 9.59996 10.3239C9.72504 10.4437 9.7877 10.5886 9.7877 10.7581C9.7877 10.9149 9.72452 11.0804 9.59801 11.255C9.4716 11.4294 9.18211 11.6848 8.72975 12.0209Z" fill="#000"/>
<path d="M16.0261 14.7401V13.701H16.7238V12.5023H16.0261V9.08546H14.6798L11.8659 12.4305V13.701H14.6798V14.7401H16.0261ZM13.1931 12.5023L14.6798 10.753V12.5023H13.1931Z" fill="#000"/>
</g>
<defs>
<clipPath id="clip0">
<rect width="20" height="20" fill="white" transform="translate(2 2)"/>
</clipPath>
</defs>
</svg>
