<svg width="24" height="24" viewBox="0 0 24 24" fill="none" xmlns="http://www.w3.org/2000/svg">
<path d="M10.7478 16.0119C10.0564 16.7034 10.0564 17.8251 10.7478 18.5167C11.4396 19.2081 12.5611 19.2081 13.2529 18.5167C13.9442 17.8251 13.9442 16.7034 13.2529 16.0119C12.5611 15.3204 11.4396 15.3204 10.7478 16.0119Z" fill="#000"/>
<path d="M12.0004 11.7999C10.5411 11.7999 9.16834 12.3683 8.13707 13.4005C7.73194 13.8055 7.73194 14.4619 8.13707 14.8666C8.54188 15.2715 9.19794 15.2715 9.60308 14.8666C10.2427 14.226 11.0944 13.8733 12.0004 13.8733C12.9063 13.8733 13.758 14.226 14.3977 14.8666C14.6004 15.069 14.8663 15.1702 15.1308 15.1702C15.3968 15.1702 15.6613 15.069 15.8637 14.8666C16.2688 14.4619 16.2688 13.8055 15.8637 13.4005C14.8324 12.3683 13.4596 11.7999 12.0004 11.7999Z" fill="#000"/>
<path d="M12.0003 8.38611C9.62876 8.38611 7.39925 9.30972 5.72264 10.9866C5.31784 11.3915 5.31784 12.0479 5.72264 12.4526C6.12774 12.8575 6.78417 12.8575 7.18861 12.4526C8.47361 11.1672 10.1827 10.4594 12.0003 10.4594C13.8171 10.4594 15.5262 11.1672 16.8113 12.4526C17.0136 12.6551 17.2796 12.7563 17.5441 12.7563C17.81 12.7563 18.0749 12.6551 18.2773 12.4526C18.6821 12.0479 18.6821 11.3915 18.2773 10.9866C16.6007 9.30972 14.3719 8.38611 12.0003 8.38611Z" fill="#000"/>
<path d="M20.6971 8.56761C18.3744 6.24416 15.2861 4.96484 12.0003 4.96484C8.71459 4.96484 5.62625 6.24416 3.30361 8.56761C2.8988 8.9726 2.8988 9.62902 3.30361 10.0336C3.50634 10.2361 3.77155 10.3373 4.03677 10.3373C4.30199 10.3373 4.56794 10.2361 4.76961 10.0336C6.70068 8.10188 9.26897 7.03821 12.0003 7.03821C14.7317 7.03821 17.2992 8.10188 19.2304 10.0336C19.6351 10.4386 20.2912 10.4382 20.6964 10.034C21.1011 9.62902 21.1011 8.9726 20.6971 8.56761Z" fill="#000"/>
</svg>
