<svg width="18" height="18" viewBox="0 0 18 18" fill="none" xmlns="http://www.w3.org/2000/svg">
<path d="M17.7545 7.6947L9.58257 0.265693L9.50449 0.194713C9.45084 0.145951 9.39192 0.10633 9.32966 0.0758496C9.32688 0.0745137 9.324 0.0735293 9.32122 0.0721933C9.1183 -0.0240645 8.88166 -0.0240645 8.67871 0.0721933C8.67593 0.0734941 8.67305 0.0744785 8.67027 0.0758496C8.60801 0.10633 8.54909 0.145951 8.49544 0.194713L8.41848 0.264674L0.245507 7.6947C-0.0609852 7.97331 -0.0835907 8.44768 0.195057 8.75417C0.47367 9.06066 0.948033 9.08327 1.25452 8.80462L1.50002 8.58145V17.2497C1.50002 17.6639 1.8358 17.9997 2.25001 17.9997H6.00002H12H15.75C16.1642 17.9997 16.5 17.6639 16.5 17.2497V8.58145L16.7455 8.80462C17.052 9.08327 17.5263 9.06066 17.8049 8.75417C18.0836 8.44768 18.061 7.97335 17.7545 7.6947ZM7.49999 16.4997V11.9997C7.49999 11.1712 8.17144 10.4997 9 10.4997C9.82856 10.4997 10.5 11.1711 10.5 11.9997V16.4997H7.49999Z" fill="#000"/>
</svg>
