<svg width="25" height="24" viewBox="0 0 25 24" fill="none" xmlns="http://www.w3.org/2000/svg">
<g clip-path="url(#clip0)">
<path d="M1.49995 -1H25.5V23H1.49995V-1Z" fill="white"/>
<g clip-path="url(#clip1)">
<path d="M7.48913 13.8776L6.86258 16.2166L4.57254 16.2651C3.88815 14.9957 3.49995 13.5434 3.49995 12C3.49995 10.5076 3.86291 9.1002 4.50627 7.86098H4.50676L6.54554 8.23476L7.43865 10.2613C7.25172 10.8063 7.14984 11.3913 7.14984 12C7.14991 12.6606 7.26958 13.2936 7.48913 13.8776Z" fill="#FBBB00"/>
<path d="M21.3427 10.3187C21.4461 10.8631 21.5 11.4254 21.5 12C21.5 12.6444 21.4322 13.2729 21.3032 13.8791C20.865 15.9422 19.7202 17.7437 18.1344 19.0185L18.1339 19.018L15.5659 18.887L15.2025 16.6182C16.2548 16.0011 17.0772 15.0353 17.5104 13.8791H12.6978V10.3187H17.5806H21.3427Z" fill="#518EF8"/>
<path d="M18.1338 19.018L18.1343 19.0185C16.592 20.2582 14.6327 21 12.5 21C9.07253 21 6.09265 19.0843 4.57253 16.2651L7.48913 13.8777C8.24917 15.9061 10.2059 17.3501 12.5 17.3501C13.486 17.3501 14.4097 17.0835 15.2024 16.6182L18.1338 19.018Z" fill="#28B446"/>
<path d="M18.2446 5.07197L15.329 7.45894C14.5086 6.94615 13.5389 6.64992 12.5 6.64992C10.154 6.64992 8.16066 8.16013 7.43869 10.2613L4.50676 7.86098H4.50627C6.00414 4.97307 9.0216 3 12.5 3C14.6837 3 16.6859 3.77787 18.2446 5.07197Z" fill="#F14336"/>
</g>
</g>
<defs>
<clipPath id="clip0">
<rect width="24" height="24" fill="white" transform="translate(0.499954)"/>
</clipPath>
<clipPath id="clip1">
<rect width="18" height="18" fill="white" transform="translate(3.49995 3)"/>
</clipPath>
</defs>
</svg>
