<svg width="24" height="24" viewBox="0 0 24 24" fill="none" xmlns="http://www.w3.org/2000/svg">
<g clip-path="url(#clip0)">
<path d="M20.4216 19.875H20.0329L19.7849 18.8831C19.7654 18.8049 19.6951 18.75 19.6144 18.75H4.38566C4.30501 18.75 4.2347 18.8049 4.21512 18.8831L3.96716 19.875H3.5784C3.27553 19.875 3.01492 20.1078 3.00064 20.4103C2.98542 20.7333 3.2428 21 3.56251 21H20.4375C20.7572 21 21.0146 20.7333 20.9994 20.4103C20.9851 20.1078 20.7245 19.875 20.4216 19.875Z" fill="#000"/>
<path d="M10.6097 7.78125H11.4375V8.64862C7.97776 8.93543 5.25003 11.8424 5.25003 15.375V15.6562C4.93031 15.6562 4.67311 15.9226 4.68816 16.2456C4.70222 16.5483 4.96283 16.7812 5.26581 16.7812H6.93753V17.4492C6.93753 17.5463 7.01624 17.625 7.11331 17.625H16.8867C16.9838 17.625 17.0625 17.5463 17.0625 17.4492V16.7812H18.7342C19.0372 16.7812 19.2978 16.5483 19.3119 16.2456C19.3269 15.9226 19.0697 15.6562 18.75 15.6562V15.375C18.75 11.8424 16.0223 8.93543 12.5625 8.64862V7.78125H13.3904C13.6933 7.78125 13.9539 7.54848 13.9681 7.24596C13.9834 6.92295 13.726 6.65625 13.4063 6.65625H10.5938C10.2741 6.65625 10.0167 6.92295 10.0319 7.24596C10.0462 7.54848 10.3068 7.78125 10.6097 7.78125Z" fill="#000"/>
<path d="M3.5625 12.5625H4.6875C4.99818 12.5625 5.25 12.3106 5.25 12C5.25 11.6894 4.99818 11.4375 4.6875 11.4375H3.5625C3.25182 11.4375 3 11.6894 3 12C3 12.3106 3.25182 12.5625 3.5625 12.5625Z" fill="#000"/>
<path d="M19.3125 12.5625H20.4375C20.7482 12.5625 21 12.3106 21 12C21 11.6894 20.7482 11.4375 20.4375 11.4375H19.3125C19.0018 11.4375 18.75 11.6894 18.75 12C18.75 12.3106 19.0018 12.5625 19.3125 12.5625Z" fill="#000"/>
<path d="M6.43157 7.22705C6.65123 7.4467 7.00739 7.44674 7.22705 7.22705C7.44674 7.00736 7.44674 6.65122 7.22705 6.43157L6.43153 5.63602C6.21188 5.41636 5.85571 5.41632 5.63605 5.63602C5.41636 5.85571 5.41636 6.21184 5.63605 6.4315L6.43157 7.22705Z" fill="#000"/>
<path d="M17.1708 7.39179C17.3147 7.39179 17.4587 7.33684 17.5685 7.22705L18.364 6.43157C18.5837 6.21188 18.5837 5.85574 18.364 5.63609C18.1444 5.41643 17.7882 5.41643 17.5685 5.63609L16.773 6.43157C16.4176 6.78689 16.6741 7.39179 17.1708 7.39179Z" fill="#000"/>
<path d="M12 5.25C12.3107 5.25 12.5625 4.99814 12.5625 4.6875V3.5625C12.5625 3.25186 12.3107 3 12 3C11.6893 3 11.4375 3.25186 11.4375 3.5625V4.6875C11.4375 4.99814 11.6893 5.25 12 5.25Z" fill="#000"/>
</g>
<defs>
<clipPath id="clip0">
<rect width="18" height="18" fill="white" transform="translate(3 3)"/>
</clipPath>
</defs>
</svg>
