<svg width="24" height="24" viewBox="0 0 24 24" fill="none" xmlns="http://www.w3.org/2000/svg">
<path d="M12 5.55469C9.73863 5.55469 7.89844 7.39488 7.89844 9.65625C7.89844 11.9176 9.73863 13.7578 12 13.7578C14.2614 13.7578 16.1016 11.9176 16.1016 9.65625C16.1016 7.39488 14.2614 5.55469 12 5.55469ZM12.5859 10.2422H11.4141V12C11.4141 12.3239 11.152 12.5859 10.8281 12.5859C10.5043 12.5859 10.2422 12.3239 10.2422 12V7.3125C10.2422 6.98863 10.5043 6.72656 10.8281 6.72656H12.5859C13.5552 6.72656 14.3438 7.51508 14.3438 8.48438C14.3438 9.45367 13.5552 10.2422 12.5859 10.2422Z" fill="#000"/>
<path d="M12.5859 7.89844H11.4141V9.07031H12.5859C12.9092 9.07031 13.1719 8.80766 13.1719 8.48438C13.1719 8.16109 12.9092 7.89844 12.5859 7.89844Z" fill="#000"/>
<path d="M12 2C7.8 2 4.38281 5.45625 4.38281 9.65625C4.38281 11.3139 4.90809 12.8909 5.90203 14.2167L11.5314 21.7654C11.6418 21.913 11.8157 22 12 22C12.1843 22 12.3582 21.913 12.4686 21.7654L18.098 14.2167C19.0919 12.8909 19.6172 11.3139 19.6172 9.65625C19.6172 5.45625 16.2 2 12 2ZM12 14.9297C9.09207 14.9297 6.72656 12.5642 6.72656 9.65625C6.72656 6.74832 9.09207 4.38281 12 4.38281C14.9079 4.38281 17.2734 6.74832 17.2734 9.65625C17.2734 12.5642 14.9079 14.9297 12 14.9297Z" fill="#000"/>
</svg>
