<svg width="24" height="24" viewBox="0 0 24 24" fill="none" xmlns="http://www.w3.org/2000/svg">
<path d="M16.03 11.695H14.5025C14.5011 11.695 14.5 11.6961 14.5 11.6975C14.5 11.6989 14.4988 11.7 14.4975 11.7C13.4786 11.6984 12.65 10.7192 12.65 9.70001C12.65 8.74749 13.3738 8.04789 14.3002 7.95949C14.4102 7.94899 14.5 7.86048 14.5 7.75003V6.65003C14.5 6.53957 14.4102 6.4494 14.3 6.45593C12.5474 6.55967 11.15 8.01735 11.15 9.80004C11.15 11.6492 12.6486 13.1487 14.4975 13.1501C14.4988 13.1501 14.5 13.1489 14.5 13.1476C14.5 13.1462 14.5011 13.145 14.5025 13.145H16.03C17.075 13.145 18 13.8851 18 15.2V16.3C18 16.4105 18.0895 16.5 18.2 16.5H19.3C19.4105 16.5 19.5 16.4105 19.5 16.3V14.855C19.5 13.055 17.9 11.695 16.03 11.695Z" fill="#000"/>
<path d="M19.3 17.5H18.2C18.0895 17.5 18 17.5896 18 17.7V20.3C18 20.4105 18.0895 20.5 18.2 20.5H19.3C19.4104 20.5 19.5 20.4105 19.5 20.3V17.7C19.5 17.5896 19.4104 17.5 19.3 17.5Z" fill="#000"/>
<path d="M16.8 17.5H2.2C2.08954 17.5 2 17.5896 2 17.7V20.3C2 20.4105 2.08954 20.5 2.2 20.5H16.8C16.9104 20.5 17 20.4105 17 20.3V17.7C17 17.5896 16.9104 17.5 16.8 17.5Z" fill="#000"/>
<path d="M19.1047 9.35954C18.9826 9.29337 18.9546 9.12663 19.0449 9.02121C19.5453 8.43752 19.85 7.67742 19.85 6.85001C19.85 5.06732 18.4525 3.60964 16.7 3.5059C16.5897 3.49938 16.5 3.58954 16.5 3.7V4.8C16.5 4.91046 16.5898 4.99886 16.6997 5.0107C17.6261 5.11061 18.35 5.89747 18.35 6.85001C18.35 7.80256 17.6261 8.58942 16.6997 8.68932C16.5898 8.70117 16.5 8.78957 16.5 8.90003V10C16.5 10.1105 16.5896 10.1995 16.7 10.2049C18.8483 10.3095 20.4999 12.0921 20.4999 14.27V16.3C20.4999 16.4105 20.5895 16.5 20.6999 16.5H21.7999C21.9104 16.5 21.9999 16.4105 21.9999 16.3V14.265C22 12.1425 20.8352 10.2976 19.1047 9.35954Z" fill="#000"/>
<path d="M21.8 17.5H20.7C20.5895 17.5 20.5 17.5896 20.5 17.7V20.3C20.5 20.4105 20.5895 20.5 20.7 20.5H21.8C21.9105 20.5 22 20.4105 22 20.3V17.7C22 17.5896 21.9105 17.5 21.8 17.5Z" fill="#000"/>
</svg>
