<svg width="20" height="20" viewBox="0 0 20 20" fill="none" xmlns="http://www.w3.org/2000/svg">
<path fill-rule="evenodd" clip-rule="evenodd" d="M10 0.800049C4.92696 0.800049 0.800003 4.92701 0.800003 10C0.800003 15.0727 4.92838 19.2001 10 19.2001C15.0817 19.2001 19.2 15.0623 19.2 10C19.2 4.92701 15.073 0.800049 10 0.800049ZM14.6096 16.0711C13.3282 17.0465 11.7308 17.6261 10 17.6261C8.26962 17.6261 6.67248 17.0468 5.39118 16.0717C6.21717 14.2955 8.00731 13.1349 10 13.1349C11.993 13.1349 13.7835 14.2952 14.6096 16.0711ZM7.26523 8.82615C7.26523 7.31836 8.49222 6.09137 10 6.09137C11.5078 6.09137 12.7348 7.31836 12.7348 8.82615C12.7348 10.3339 11.5078 11.5609 10 11.5609C8.49222 11.5609 7.26523 10.3339 7.26523 8.82615ZM17.6261 10C17.6261 11.8854 16.9382 13.6128 15.8 14.9456C15.0982 13.7011 14.0187 12.727 12.739 12.1496C13.6966 11.3591 14.3087 10.163 14.3087 8.82615C14.3087 6.45015 12.376 4.51744 10 4.51744C7.62401 4.51744 5.69129 6.45015 5.69129 8.82615C5.69129 10.1631 6.30351 11.3593 7.26121 12.1498C5.98163 12.7273 4.90239 13.7017 4.20065 14.9464C3.06205 13.6135 2.37391 11.8858 2.37391 10C2.37391 5.79522 5.79514 2.37395 10 2.37395C14.2049 2.37395 17.6261 5.79522 17.6261 10Z" fill="#000"/>
</svg>
