<svg width="24" height="25" viewBox="0 0 24 25" fill="none" xmlns="http://www.w3.org/2000/svg">
<g clip-path="url(#clip0)">
<path d="M12.0036 3.5C11.4536 3.5 11.0036 3.95 11.0036 4.5V12.5C11.0036 13.05 11.4536 13.5 12.0036 13.5C12.5536 13.5 13.0036 13.05 13.0036 12.5V4.5C13.0036 3.95 12.5536 3.5 12.0036 3.5ZM17.1436 6.36C16.7536 6.75 16.7636 7.36 17.1336 7.75C18.2636 8.95 18.9636 10.55 19.0036 12.32C19.0936 16.15 15.9236 19.45 12.0936 19.49C8.18359 19.55 5.00359 16.4 5.00359 12.5C5.00359 10.66 5.71358 8.99 6.87358 7.74C7.24359 7.35 7.24359 6.74 6.86359 6.36C6.46359 5.96 5.81358 5.97 5.43358 6.38C3.98358 7.92 3.07358 9.97 3.00358 12.24C2.86358 17.12 6.83358 21.34 11.7136 21.49C16.8136 21.65 21.0036 17.56 21.0036 12.49C21.0036 10.12 20.0836 7.98 18.5836 6.38C18.2036 5.97 17.5436 5.96 17.1436 6.36Z" fill="#000"/>
</g>
<defs>
<clipPath id="clip0">
<rect width="24" height="24" fill="white" transform="translate(0 0.5)"/>
</clipPath>
</defs>
</svg>
