<svg width="24" height="24" viewBox="0 0 24 24" fill="none" xmlns="http://www.w3.org/2000/svg">
<path d="M18.7273 19.3636C17.7536 19.3636 16.78 19.0773 15.8882 18.5618C15.6182 18.4064 15.2909 18.4064 15.0127 18.5618C13.2373 19.5927 11.1182 19.5927 9.34273 18.5618C9.07273 18.4064 8.74545 18.4064 8.46727 18.5618C7.58364 19.0773 6.61 19.3636 5.63636 19.3636H4.81818C4.36818 19.3636 4 19.7318 4 20.1818C4 20.6318 4.36818 21 4.81818 21H5.63636C6.76545 21 7.87818 20.7136 8.90909 20.19C10.9709 21.2455 13.3927 21.2455 15.4545 20.19C16.4855 20.7218 17.5982 21 18.7273 21H19.5455C19.9955 21 20.3636 20.6318 20.3636 20.1818C20.3636 19.7318 19.9955 19.3636 19.5455 19.3636H18.7273ZM5.59545 17.7273H5.63636C6.67545 17.7273 7.61636 17.2773 8.36091 16.6391C8.68 16.3609 9.13818 16.3609 9.45727 16.6391C10.2018 17.2773 11.1427 17.7273 12.1818 17.7273C13.2209 17.7273 14.1618 17.2773 14.9064 16.6391C15.2255 16.3609 15.6836 16.3609 16.0027 16.6391C16.7473 17.2773 17.6882 17.7273 18.7273 17.7273H18.7682L20.3227 12.2618C20.4127 11.9591 20.3555 11.3945 19.7827 11.2145L18.7273 10.8709V7.09091C18.7273 6.19091 17.9909 5.45455 17.0909 5.45455H14.6364V3.81818C14.6364 3.36818 14.2682 3 13.8182 3H10.5455C10.0955 3 9.72727 3.36818 9.72727 3.81818V5.45455H7.27273C6.37273 5.45455 5.63636 6.19091 5.63636 7.09091V10.8709L4.58091 11.2145C4.06545 11.37 3.91818 11.9018 4.04091 12.2618L5.59545 17.7273ZM7.27273 7.09091H17.0909V10.3391L12.6891 8.89091C12.3536 8.78455 12.0018 8.78455 11.6664 8.89091L7.27273 10.3391V7.09091Z" fill="#000"/>
</svg>
