<svg width="24" height="24" viewBox="0 0 24 24" fill="none" xmlns="http://www.w3.org/2000/svg">
<g clip-path="url(#clip0)">
<path d="M18.7144 6.15749L12.4253 3.2C12.1559 3.07331 11.8441 3.07324 11.5746 3.19981L5.27768 6.15749H18.7144Z" fill="#000"/>
<path d="M4.59665 7.22786V8.99034C4.59665 9.73339 5.20116 10.3379 5.94421 10.3379C6.34517 10.3379 6.70575 10.1619 6.95283 9.8831C7.19987 10.1619 7.56048 10.3379 7.96144 10.3379C8.3624 10.3379 8.72297 10.1619 8.97005 9.8831C9.21709 10.1619 9.5777 10.3379 9.97866 10.3379C10.3796 10.3379 10.7402 10.1619 10.9873 9.8831C11.1172 10.0297 11.2787 10.1474 11.4607 10.2266V13.3868C11.4607 13.6824 11.7003 13.922 11.9959 13.922C12.2915 13.922 12.5311 13.6824 12.5311 13.3868V10.2265C12.7131 10.1474 12.8746 10.0297 13.0045 9.88306C13.2516 10.1619 13.6122 10.3379 14.0131 10.3379C14.4141 10.3379 14.7746 10.1619 15.0217 9.88306C15.2688 10.1619 15.6294 10.3379 16.0303 10.3379C16.4313 10.3379 16.7919 10.1619 17.039 9.88306C17.286 10.1619 17.6466 10.3379 18.0476 10.3379C18.7906 10.3379 19.3951 9.73336 19.3951 8.9903V7.22783L4.59665 7.22786Z" fill="#000"/>
<path d="M7.20502 14.9923C6.91718 14.9923 6.68384 15.2256 6.68384 15.5135C6.68384 15.8013 6.91718 16.0347 7.20502 16.0347H11.3214C11.3982 16.0347 11.4605 16.097 11.4605 16.1738V20.4648C11.4605 20.7604 11.7001 21 11.9957 21C12.2913 21 12.5309 20.7604 12.5309 20.4648V16.174C12.5309 16.0971 12.5933 16.0347 12.6703 16.0347H16.795C17.0829 16.0347 17.3162 15.8013 17.3162 15.5135C17.3162 15.2256 17.0829 14.9923 16.795 14.9923H7.20502Z" fill="#000"/>
<path d="M5.47076 13.8642C5.47076 13.5686 5.23115 13.329 4.93558 13.329C4.64 13.329 4.40039 13.5686 4.40039 13.8642V20.4648C4.40039 20.7604 4.64 21 4.93558 21C5.23115 21 5.47076 20.7604 5.47076 20.4648V18.3212C5.47076 18.2768 5.50674 18.2409 5.55113 18.2409H7.32895C7.37334 18.2409 7.40932 18.2768 7.40932 18.3212V20.4648C7.40932 20.7604 7.64893 21 7.9445 21C8.24008 21 8.47969 20.7604 8.47969 20.4648V17.5186C8.47969 17.3263 8.32382 17.1705 8.13155 17.1705H5.58265C5.52086 17.1705 5.47076 17.1204 5.47076 17.0586V13.8642Z" fill="#000"/>
<path d="M18.5293 17.0586C18.5293 17.1204 18.4792 17.1705 18.4174 17.1705H15.8685C15.6762 17.1705 15.5203 17.3263 15.5203 17.5186V20.4648C15.5203 20.7604 15.7599 21 16.0555 21C16.3511 21 16.5907 20.7604 16.5907 20.4648V18.3212C16.5907 18.2768 16.6267 18.2409 16.6711 18.2409H18.4489C18.4933 18.2409 18.5293 18.2768 18.5293 18.3212V20.4648C18.5293 20.7604 18.7689 21 19.0645 21C19.3601 21 19.5997 20.7604 19.5997 20.4648V13.8642C19.5997 13.5686 19.3601 13.329 19.0645 13.329C18.7689 13.329 18.5293 13.5686 18.5293 13.8642V17.0586Z" fill="#000"/>
</g>
<defs>
<clipPath id="clip0">
<rect width="18" height="18" fill="white" transform="translate(3 3)"/>
</clipPath>
</defs>
</svg>
