<svg width="16" height="16" viewBox="0 0 16 16" fill="none" xmlns="http://www.w3.org/2000/svg">
<g clip-path="url(#clip0)">
<g clip-path="url(#clip1)">
<path d="M9.41065 4.0155L2.80807 10.6185C2.77485 10.6519 2.75087 10.6939 2.73945 10.7391L2.00762 13.6765C1.98572 13.765 2.01171 13.859 2.07624 13.9235C2.12507 13.9724 2.1916 13.9994 2.25965 13.9994C2.28049 13.9994 2.30181 13.9968 2.32256 13.9916L5.25998 13.2597C5.30576 13.2482 5.34736 13.2243 5.38057 13.1911L11.9837 6.58857L9.41065 4.0155Z" fill="#000"/>
<path d="M13.6195 3.11517L12.8845 2.3802C12.3933 1.88898 11.5371 1.88946 11.0465 2.3802L10.1462 3.2805L12.7192 5.85347L13.6195 4.95317C13.8648 4.7079 14 4.38143 14 4.03422C14 3.68701 13.8648 3.36054 13.6195 3.11517Z" fill="#000"/>
</g>
</g>
<defs>
<clipPath id="clip0">
<rect width="16" height="16" fill="white"/>
</clipPath>
<clipPath id="clip1">
<rect width="12" height="12" fill="white" transform="translate(2 2)"/>
</clipPath>
</defs>
</svg>
