<svg width="32" height="32" viewBox="0 0 32 32" fill="none" xmlns="http://www.w3.org/2000/svg">
<path d="M15.1771 1.19172C15.5747 0.615993 16.4253 0.615993 16.8229 1.19172L18.403 3.48012C18.6903 3.89612 19.2428 4.03231 19.6905 3.79745L22.1531 2.5055C22.7727 2.18047 23.5259 2.57581 23.6104 3.27033L23.9461 6.03094C24.0071 6.53278 24.433 6.91015 24.9386 6.91024L27.7195 6.91072C28.4192 6.91084 28.9024 7.61094 28.6544 8.26516L27.6687 10.8656C27.4896 11.3383 27.6914 11.8704 28.1389 12.1054L30.6011 13.3982C31.2206 13.7234 31.3231 14.5679 30.7995 15.0319L28.7182 16.8764C28.3399 17.2117 28.2713 17.7766 28.5584 18.1927L30.1378 20.4817C30.5351 21.0575 30.2335 21.853 29.5542 22.0205L26.8542 22.6865C26.3633 22.8076 26.0401 23.2759 26.1009 23.7778L26.4356 26.5385C26.5199 27.233 25.8831 27.7972 25.2038 27.6298L22.5035 26.9648C22.0127 26.8439 21.5088 27.1083 21.3294 27.581L20.3428 30.181C20.0946 30.8352 19.2686 31.0388 18.7449 30.5749L16.663 28.7312C16.2845 28.396 15.7155 28.396 15.337 28.7312L13.2551 30.5749C12.7314 31.0388 11.9054 30.8352 11.6572 30.181L10.6706 27.581C10.4912 27.1083 9.98735 26.8439 9.49648 26.9648L6.79623 27.6298C6.11689 27.7972 5.48014 27.233 5.56435 26.5385L5.89909 23.7778C5.95994 23.2759 5.63666 22.8076 5.14584 22.6865L2.44582 22.0205C1.76654 21.853 1.46487 21.0575 1.86222 20.4817L3.44158 18.1927C3.72869 17.7766 3.66009 17.2117 3.28175 16.8764L1.2005 15.0319C0.676891 14.5679 0.77943 13.7234 1.39888 13.3982L3.86106 12.1054C4.30865 11.8704 4.51045 11.3383 4.33126 10.8656L3.34557 8.26516C3.09759 7.61094 3.58084 6.91084 4.28048 6.91072L7.06142 6.91024C7.56696 6.91015 7.99292 6.53278 8.05394 6.03094L8.38962 3.27033C8.47407 2.57581 9.22732 2.18047 9.84688 2.5055L12.3095 3.79745C12.7572 4.03231 13.3097 3.89612 13.597 3.48012L15.1771 1.19172Z" fill="#C6E8E9"/>
<path fill-rule="evenodd" clip-rule="evenodd" d="M15.2038 9.82166C15.535 9.17056 16.4651 9.17056 16.7963 9.82166L18.1987 12.5789C18.3286 12.8342 18.5729 13.0118 18.8559 13.0564L21.9116 13.5381C22.6332 13.6519 22.9206 14.5365 22.4037 15.0527L20.2147 17.2385C20.0121 17.4409 19.9187 17.7282 19.9637 18.011L20.4498 21.0661C20.5646 21.7875 19.8121 22.3342 19.1615 22.0021L16.4062 20.5958C16.1511 20.4655 15.849 20.4655 15.5939 20.5958L12.8386 22.0021C12.188 22.3342 11.4355 21.7875 11.5503 21.0661L12.0364 18.011C12.0814 17.7282 11.988 17.4409 11.7854 17.2385L9.5964 15.0527C9.0795 14.5365 9.36693 13.6519 10.0885 13.5381L13.1442 13.0564C13.4271 13.0118 13.6715 12.8342 13.8013 12.5789L15.2038 9.82166Z" fill="#00A9BA"/>
</svg>
