<svg width="24" height="24" viewBox="0 0 24 24" fill="none" xmlns="http://www.w3.org/2000/svg">
<path d="M20.536 16.2136C20.5835 15.9696 20.5679 15.692 20.4876 15.403C19.9615 13.508 18.3875 9.62831 17.0794 8.0304C16.7361 7.6111 16.0749 7.64732 15.6915 8.0304C15.5228 8.19915 15.4291 8.41408 15.4091 8.63447C15.3064 8.53948 15.1762 8.4739 15.0324 8.45513C15.0324 8.45513 11.7148 8.04171 11.6745 8.04697H10.1658C9.6742 8.04697 9.53032 8.33205 9.53032 8.68247V13.5258H8.42302V8.33193C8.42302 8.07497 8.21394 7.86589 7.95699 7.86589H3.46603C3.20908 7.86589 3 8.07497 3 8.33193C3 8.33193 3.00161 15.6252 3.00161 16.0969C3.00161 16.6388 3.44091 17.0781 3.98278 17.0781H4.94561C4.89587 17.2806 4.86896 17.4921 4.86896 17.7098C4.86896 19.1716 6.05845 20.3608 7.52048 20.3608C8.98243 20.3608 10.1718 19.1716 10.1718 17.7098C10.1718 17.4921 10.1449 17.2806 10.0952 17.0781H13.0626V17.7282C13.0626 18.2421 13.4808 18.6602 13.9947 18.6602H14.0125C14.2611 18.6602 14.4945 18.5628 14.6696 18.3859C14.8448 18.2089 14.9398 17.9746 14.9373 17.726L14.9307 17.0781H15.7739C15.7241 17.2806 15.6972 17.4921 15.6972 17.7098C15.6972 19.1716 16.8867 20.3608 18.3487 20.3608C19.8107 20.3608 21.0001 19.1716 21.0001 17.7098C21 17.1551 20.8284 16.6398 20.536 16.2136ZM18.3486 16.7092C18.9003 16.7092 19.3492 17.1581 19.3492 17.7098C19.3492 18.2615 18.9003 18.7103 18.3486 18.7103C17.7967 18.7103 17.3477 18.2615 17.3477 17.7098C17.3477 17.1581 17.7967 16.7092 18.3486 16.7092ZM8.52097 17.7098C8.52097 18.2615 8.07214 18.7103 7.52044 18.7103C6.96853 18.7103 6.51953 18.2615 6.51953 17.7098C6.51953 17.1581 6.96853 16.7092 7.52044 16.7092C8.07214 16.7092 8.52097 17.1581 8.52097 17.7098ZM14.8957 13.6686C14.8905 13.1558 14.4691 12.7387 13.9563 12.7387H12.4054V9.57171L13.1638 9.66487C13.2255 9.94852 13.4777 10.161 13.7797 10.161H16.4344L16.6401 11.8754L14.9007 14.1527L14.8957 13.6686Z" fill="#000"/>
<path d="M10.7372 7.36758C11.7652 7.36758 12.6014 6.53131 12.6014 5.50332C12.6014 5.37262 12.5877 5.24505 12.562 5.12185L12.971 5.1138C13.2147 5.10897 13.4774 4.93934 13.582 4.71916L13.7191 4.43047C13.7843 4.29333 13.7809 4.15013 13.7097 4.03756C13.6386 3.92508 13.511 3.86055 13.358 3.86055L11.6251 3.86458C11.3609 3.72087 11.0584 3.63923 10.7372 3.63923C9.70923 3.63923 8.87296 4.47546 8.87296 5.50341C8.873 6.53131 9.70927 7.36758 10.7372 7.36758Z" fill="#000"/>
</svg>
