<svg width="24" height="24" viewBox="0 0 24 24" fill="none" xmlns="http://www.w3.org/2000/svg">
<path d="M10.3581 6.743C9.40744 6.04624 8.43206 5.18747 7.73787 4.14618L7.13016 3.23465C7.00141 3.04154 6.76144 2.95555 6.53844 3.02248C6.31597 3.08995 6.16406 3.29491 6.16406 3.52719V11.801C5.85258 11.6193 5.49529 11.5077 5.10938 11.5077C3.94602 11.5077 3 12.4537 3 13.617C3 14.7804 3.94602 15.7264 5.10938 15.7264C6.27273 15.7264 7.21875 14.7803 7.21875 13.617V5.25867C7.96392 6.20057 8.89605 6.97886 9.73446 7.59374C10.1464 7.89552 10.3828 8.3611 10.3828 8.8709C10.3828 9.74326 9.67315 10.4529 8.80078 10.4529C8.5093 10.4529 8.27344 10.6888 8.27344 10.9803C8.27344 11.2718 8.5093 11.5076 8.80078 11.5076C10.2546 11.5076 11.4375 10.3247 11.4375 8.8709C11.4375 8.03404 11.0343 7.23891 10.3581 6.743Z" fill="#000"/>
<path d="M20.328 7.30907L12.8748 9.41844C12.6482 9.48334 12.4922 9.69034 12.4922 9.92571V17.0745C12.1807 16.8929 11.8234 16.7812 11.4375 16.7812C10.2741 16.7812 9.32812 17.7272 9.32812 18.8906C9.32812 20.0539 10.2741 20.9999 11.4375 20.9999C12.6009 20.9999 13.5469 20.0539 13.5469 18.8906C13.5469 18.7703 13.5469 12.4331 13.5469 12.4331L19.9453 10.625V14.9651C19.6338 14.7835 19.2765 14.6718 18.8906 14.6718C17.7273 14.6718 16.7812 15.6178 16.7812 16.7812C16.7812 17.9445 17.7273 18.8906 18.8906 18.8906C20.054 18.8906 21 17.9445 21 16.7812C21 16.6609 21 7.81633 21 7.81633C21 7.46755 20.6664 7.21348 20.328 7.30907Z" fill="#000"/>
</svg>
