<svg width="12" height="12" viewBox="0 0 12 12" fill="none" xmlns="http://www.w3.org/2000/svg">
<path d="M5.25373 0.476927C5.54805 -0.158976 6.45195 -0.158975 6.74627 0.476927L7.89966 2.96899C8.01947 3.22784 8.26485 3.40612 8.54805 3.44007L11.2746 3.76693C11.9703 3.85033 12.2496 4.71 11.7358 5.18641L9.72211 7.05345C9.51295 7.24738 9.41922 7.53584 9.47445 7.81567L10.0061 10.5097C10.1418 11.1972 9.41052 11.7285 8.79864 11.387L6.40073 10.0489C6.15165 9.90987 5.84835 9.90987 5.59927 10.0489L3.20136 11.387C2.58948 11.7285 1.8582 11.1972 1.99387 10.5097L2.52555 7.81567C2.58078 7.53584 2.48705 7.24737 2.27789 7.05345L0.264218 5.18641C-0.249614 4.71 0.02971 3.85033 0.725437 3.76693L3.45195 3.44007C3.73515 3.40612 3.98053 3.22784 4.10034 2.96899L5.25373 0.476927Z" fill="#000"/>
</svg>
