<svg width="24" height="24" viewBox="0 0 24 24" fill="none" xmlns="http://www.w3.org/2000/svg">
<path fill-rule="evenodd" clip-rule="evenodd" d="M10.3386 4.06178C10.9938 2.64607 13.0062 2.64607 13.6614 4.06178L15.2583 7.51201C15.3233 7.65248 15.4565 7.74923 15.6101 7.76765L19.385 8.22018C20.9339 8.40586 21.5557 10.3197 20.4118 11.3804L17.6239 13.9653C17.5104 14.0705 17.4595 14.227 17.4895 14.3789L18.2256 18.1088C18.5276 19.6393 16.8996 20.8221 15.5373 20.0619L12.2175 18.2092C12.0823 18.1338 11.9177 18.1338 11.7825 18.2092L8.46265 20.0619C7.10042 20.8221 5.47239 19.6393 5.77443 18.1088L6.51053 14.3789C6.5405 14.227 6.48964 14.0705 6.37613 13.9653L3.58823 11.3804C2.44428 10.3197 3.06615 8.40586 4.61504 8.22018L8.38986 7.76765C8.54355 7.74923 8.67671 7.65248 8.74172 7.51201L10.3386 4.06178ZM12.405 4.6433C12.2453 4.29821 11.7547 4.29822 11.595 4.6433L9.99816 8.09353C9.73144 8.66981 9.18515 9.06671 8.55465 9.1423L4.77984 9.59482C4.40228 9.64009 4.25071 10.1066 4.52955 10.3651L7.31745 12.95C7.7831 13.3818 7.99177 14.024 7.86882 14.647L7.13272 18.3769C7.05909 18.7499 7.45593 19.0382 7.78798 18.8529L11.1079 17.0003C11.6624 16.6908 12.3376 16.6908 12.8921 17.0003L16.212 18.8529C16.5441 19.0382 16.9409 18.7499 16.8673 18.3769L16.1312 14.647C16.0082 14.024 16.2169 13.3818 16.6826 12.95L19.4705 10.3651C19.7493 10.1066 19.5977 9.64009 19.2202 9.59482L15.4453 9.1423C14.8149 9.06671 14.2686 8.66981 14.0018 8.09353L12.405 4.6433Z" fill="#000"/>
</svg>
