<svg width="24" height="24" viewBox="0 0 24 24" fill="none" xmlns="http://www.w3.org/2000/svg">
<path d="M12 2.15625C7.77832 2.15625 4.34375 5.59082 4.34375 9.8125C4.34375 11.8633 5.58621 14.4969 8.0366 17.6398C9.15924 19.076 10.375 20.4369 11.676 21.7137C11.7632 21.7972 11.8793 21.8437 12 21.8437C12.1207 21.8437 12.2368 21.7972 12.324 21.7137C13.625 20.4369 14.8408 19.076 15.9634 17.6398C18.4138 14.4969 19.6562 11.8633 19.6562 9.8125C19.6562 5.59082 16.2217 2.15625 12 2.15625ZM12 15.2812C8.98438 15.2812 6.53125 12.8281 6.53125 9.8125C6.53125 6.79687 8.98438 4.34375 12 4.34375C15.0156 4.34375 17.4688 6.79687 17.4688 9.8125C17.4688 12.8281 15.0156 15.2812 12 15.2812Z" fill="#000"/>
<path d="M15.7528 9.15315L12.3153 6.02815C12.229 5.94971 12.1166 5.90625 12 5.90625C11.8834 5.90625 11.771 5.94971 11.6847 6.02815L8.24719 9.15315C8.1671 9.22598 8.11468 9.32426 8.0988 9.43134C8.08292 9.53841 8.10457 9.64768 8.16008 9.74061C8.20387 9.81136 8.26525 9.86957 8.33822 9.90954C8.4112 9.94952 8.49329 9.96992 8.57649 9.96874H9.03125V12.9375C9.03125 13.0618 9.08064 13.181 9.16855 13.2689C9.25646 13.3569 9.37568 13.4062 9.50001 13.4062H10.5938C10.7181 13.4062 10.8373 13.3569 10.9252 13.2689C11.0131 13.181 11.0625 13.0618 11.0625 12.9375V11.2187C11.0625 11.0944 11.1119 10.9752 11.1998 10.8873C11.2877 10.7994 11.4069 10.75 11.5313 10.75H12.4688C12.5931 10.75 12.7123 10.7994 12.8002 10.8873C12.8881 10.9752 12.9375 11.0944 12.9375 11.2187V12.9375C12.9375 13.0618 12.9869 13.181 13.0748 13.2689C13.1627 13.3569 13.2819 13.4062 13.4063 13.4062H14.5C14.6243 13.4062 14.7436 13.3569 14.8315 13.2689C14.9194 13.181 14.9688 13.0618 14.9688 12.9375V9.96874H15.4235C15.5067 9.96992 15.5888 9.94952 15.6618 9.90954C15.7348 9.86957 15.7961 9.81136 15.8399 9.74061C15.8954 9.64768 15.9171 9.53841 15.9012 9.43134C15.8853 9.32426 15.8329 9.22598 15.7528 9.15315Z" fill="#000"/>
</svg>
