<svg width="24" height="24" viewBox="0 0 24 24" fill="none" xmlns="http://www.w3.org/2000/svg">
<g clip-path="url(#clip0)">
<path fill-rule="evenodd" clip-rule="evenodd" d="M12 2.80005C6.92696 2.80005 2.8 6.92701 2.8 12C2.8 17.0727 6.92838 21.2001 12 21.2001C17.0817 21.2001 21.2 17.0623 21.2 12C21.2 6.92701 17.073 2.80005 12 2.80005ZM16.6096 18.0711C15.3282 19.0465 13.7308 19.6261 12 19.6261C10.2696 19.6261 8.67248 19.0468 7.39118 18.0717C8.21717 16.2955 10.0073 15.1349 12 15.1349C13.993 15.1349 15.7835 16.2952 16.6096 18.0711ZM9.26523 10.8261C9.26523 9.31836 10.4922 8.09137 12 8.09137C13.5078 8.09137 14.7348 9.31836 14.7348 10.8261C14.7348 12.3339 13.5078 13.5609 12 13.5609C10.4922 13.5609 9.26523 12.3339 9.26523 10.8261ZM19.6261 12C19.6261 13.8854 18.9382 15.6128 17.8 16.9456C17.0982 15.7011 16.0187 14.727 14.739 14.1496C15.6966 13.3591 16.3087 12.163 16.3087 10.8261C16.3087 8.45015 14.376 6.51744 12 6.51744C9.62401 6.51744 7.69129 8.45015 7.69129 10.8261C7.69129 12.1631 8.30351 13.3593 9.26121 14.1498C7.98163 14.7273 6.90239 15.7017 6.20065 16.9464C5.06205 15.6135 4.37391 13.8858 4.37391 12C4.37391 7.79522 7.79514 4.37395 12 4.37395C16.2049 4.37395 19.6261 7.79522 19.6261 12Z" fill="#000"/>
</g>
<defs>
<clipPath id="clip0">
<rect width="24" height="24" fill="white"/>
</clipPath>
</defs>
</svg>
