<svg width="32" height="32" viewBox="0 0 32 32" fill="none" xmlns="http://www.w3.org/2000/svg">
<path d="M21.9818 9.50937L23.7951 7.06698C24.1232 6.62502 23.9173 5.99143 23.3921 5.82674L19.1878 4.50844L16.6348 0.9172C16.3159 0.468565 15.6497 0.468564 15.3307 0.917196L12.7778 4.50838L8.57341 5.82668C8.04819 5.99137 7.84232 6.62496 8.17044 7.06692L9.98532 9.51144C5.34657 9.78212 1.65538 13.6412 1.65538 18.3467C1.65538 23.2271 5.62594 27.1976 10.5063 27.1976H12.2158V30.4868C12.2158 31.1294 12.9352 31.5098 13.4662 31.1479L19.2634 27.1976H21.4936C26.374 27.1976 30.3446 23.2271 30.3446 18.3467C30.3446 13.6301 26.6361 9.76362 21.9818 9.50937ZM21.4936 25.3177H18.6838L14.0958 28.4441V25.3177H10.5064C6.66257 25.3177 3.53538 22.1905 3.53538 18.3467C3.53538 14.5029 6.66257 11.3757 10.5064 11.3757H10.7891L10.7516 15.0107C10.7459 15.5611 11.2848 15.9527 11.8066 15.7772L15.9828 14.3725L20.1591 15.7772C20.6808 15.9527 21.2198 15.5611 21.2141 15.0107L21.1766 11.3757H21.4937C25.3375 11.3757 28.4647 14.5029 28.4647 18.3467C28.4646 22.1905 25.3374 25.3177 21.4936 25.3177Z" fill="#000"/>
<path d="M10.6024 19.2362C10.6024 18.7171 11.0233 18.2962 11.5424 18.2962H11.6493C12.1685 18.2962 12.5893 18.7171 12.5893 19.2362C12.5893 19.7554 12.1685 20.1763 11.6493 20.1763H11.5424C11.0233 20.1763 10.6024 19.7554 10.6024 19.2362Z" fill="#000"/>
<path d="M14.9893 19.2362C14.9893 18.7171 15.4102 18.2962 15.9293 18.2962H16.0362C16.5554 18.2962 16.9762 18.7171 16.9762 19.2362C16.9762 19.7554 16.5554 20.1763 16.0362 20.1763H15.9293C15.4102 20.1763 14.9893 19.7554 14.9893 19.2362Z" fill="#000"/>
<path d="M19.3763 19.2362C19.3763 18.7171 19.7971 18.2962 20.3163 18.2962H20.4231C20.9423 18.2962 21.3631 18.7171 21.3631 19.2362C21.3631 19.7554 20.9423 20.1763 20.4231 20.1763H20.3163C19.7971 20.1763 19.3763 19.7554 19.3763 19.2362Z" fill="#000"/>
</svg>
