<svg width="24" height="24" viewBox="0 0 24 24" fill="none" xmlns="http://www.w3.org/2000/svg">
<path d="M17.15 10L15.7333 6.10001C15.4917 5.44167 14.8667 5.00001 14.1667 5.00001H12.8333C12.375 5.00001 12 5.37501 12 5.83334C12 6.29167 12.375 6.66667 12.8333 6.66667H14.1667L15.3833 10H11.375L11.075 9.16667H11.15C11.6083 9.16667 11.9833 8.79167 11.9833 8.33334C11.9833 7.87501 11.6083 7.50001 11.15 7.50001H8.66667C8.20833 7.50001 7.83333 7.87501 7.83333 8.33334C7.83333 8.79167 8.20833 9.16667 8.66667 9.16667H9.29167L10.8083 13.3333H10.25C9.88333 11.475 8.325 10.1 6.375 10.0083C4.04167 9.89167 2 11.8333 2 14.1667C2 16.5 3.83333 18.3333 6.16667 18.3333C8.21667 18.3333 9.875 16.925 10.25 15H13.75C14.1167 16.8583 15.675 18.2333 17.625 18.325C19.9583 18.4333 22 16.5 22 14.1583C22 11.825 20.1667 9.99167 17.8333 9.99167H17.15V10ZM8.51667 15C8.16667 16.025 7.18333 16.7333 6 16.6583C4.75833 16.5833 3.725 15.5333 3.66667 14.2833C3.60833 12.825 4.725 11.6667 6.16667 11.6667C7.275 11.6667 8.18333 12.3583 8.51667 13.3333H7C6.54167 13.3333 6.16667 13.7083 6.16667 14.1667C6.16667 14.625 6.54167 15 7 15H8.51667ZM13.75 13.3333H12.5833L11.975 11.6667H14.5C14.1333 12.15 13.8667 12.7083 13.75 13.3333ZM17.7333 16.6667C16.45 16.6167 15.3667 15.525 15.3333 14.2333C15.3167 13.4333 15.6583 12.7333 16.2083 12.2667L16.725 13.6833C16.8833 14.1167 17.3583 14.3417 17.7917 14.1833C18.225 14.025 18.45 13.55 18.2917 13.1167L17.7667 11.675C17.7667 11.675 17.7667 11.675 17.775 11.6667C19.2083 11.6333 20.3417 12.7417 20.3417 14.1667C20.3333 15.6 19.1833 16.7167 17.7333 16.6667Z" fill="#000"/>
</svg>
