<svg width="24" height="24" viewBox="0 0 24 24" fill="none" xmlns="http://www.w3.org/2000/svg">
<path fill-rule="evenodd" clip-rule="evenodd" d="M6.19922 3.54492C5.32685 3.54492 4.61719 4.28974 4.61719 5.16211C4.61719 6.03448 5.32685 6.74414 6.19922 6.74414C7.07159 6.74414 7.78125 6.03448 7.78125 5.16211C7.78125 4.28974 7.07159 3.54492 6.19922 3.54492ZM20.4727 8.32617H15.3824L13.7365 6.6803C13.4378 6.38161 13.0403 6.2168 12.618 6.2168H10.9453C10.6538 6.2168 10.418 6.45266 10.418 6.74414V7.79883H5.67188C5.09046 7.79883 4.61719 8.2721 4.61719 8.85352V12.0176C4.61719 12.3709 4.79279 12.6989 5.08684 12.8951L7.78125 14.6914V16.2363C7.78125 16.8177 8.25452 17.291 8.83594 17.291C9.41735 17.291 9.89062 16.8177 9.89062 16.2363V14.127C9.89062 13.7737 9.71502 13.4456 9.42097 13.2494L6.72656 11.4531V9.9082H10.418V10.9629C10.418 11.2544 10.6538 11.4902 10.9453 11.4902H12.618C13.0403 11.4902 13.4378 11.3254 13.7365 11.0267L15.3824 9.38086H20.4727C20.7641 9.38086 21 9.145 21 8.85352C21 8.56204 20.7641 8.32617 20.4727 8.32617ZM12.9908 10.281C12.8925 10.3794 12.7565 10.4355 12.618 10.4355H11.4727V9.9082C11.4727 9.86356 11.4607 9.82272 11.4487 9.78194L11.4439 9.76543C11.7699 9.58575 12 9.2512 12 8.85352C12 8.45583 11.7699 8.12128 11.4439 7.9416L11.4487 7.92509C11.4607 7.88431 11.4727 7.84347 11.4727 7.79883V7.27148H12.618C12.7565 7.27148 12.8925 7.32763 12.9908 7.426L14.4183 8.85352L12.9908 10.281ZM20.2723 14.4653C20.4335 14.3984 20.6199 14.4174 20.7662 14.5147C20.9125 14.6131 21 14.7774 21 14.953V19.9277C21 20.2192 20.7641 20.4551 20.4727 20.4551H3.52734C3.23586 20.4551 3 20.2192 3 19.9277V14.9319C3 14.7578 3.0855 14.5951 3.22918 14.4973C3.37238 14.3984 3.55519 14.3778 3.7174 14.4401C3.94655 14.5287 4.20266 14.643 4.40864 14.7805C5.01305 15.1832 5.75055 15.2677 6.41694 15.0494L6.72656 15.2558V16.2364C6.72656 16.6223 6.83825 16.9796 7.01991 17.291H5.67188C5.38039 17.291 5.14453 17.5269 5.14453 17.8184C5.14453 18.1099 5.38039 18.3457 5.67188 18.3457H12.618C13.7046 18.3457 14.7686 17.9049 15.5369 17.1365C15.7429 16.9306 15.7429 16.5968 15.5369 16.3908C15.3309 16.1849 14.9972 16.1849 14.7912 16.3908C14.2191 16.963 13.427 17.291 12.618 17.291H10.652C10.8336 16.9795 10.9453 16.6222 10.9453 16.2363V14.8787C11.6955 15.2772 12.5975 15.259 13.3158 14.7805C14.455 14.0214 15.9258 14.0214 17.0649 14.7805C17.8487 15.3027 18.8953 15.3027 19.6791 14.7805C19.8691 14.6543 20.0674 14.5492 20.2723 14.4653Z" fill="#000"/>
</svg>
